<svg width="473" height="125" viewBox="0 0 473 125" fill="none" xmlns="http://www.w3.org/2000/svg">
<path d="M128.233 33.2815V30.6367H143.993V33.2815H137.639V51.0003H134.577V33.2815H128.233ZM150.21 41.9321V51.0003H147.237V30.6367H150.17V38.2134H150.359C150.717 37.3914 151.264 36.7385 152 36.2546C152.735 35.7707 153.697 35.5287 154.883 35.5287C155.931 35.5287 156.845 35.7441 157.627 36.175C158.416 36.6059 159.026 37.2489 159.457 38.104C159.895 38.9525 160.113 40.0131 160.113 41.2858V51.0003H157.14V41.6438C157.14 40.5235 156.852 39.6551 156.275 39.0387C155.699 38.4155 154.896 38.104 153.869 38.104C153.166 38.104 152.537 38.2531 151.98 38.5514C151.43 38.8497 150.995 39.2872 150.677 39.8639C150.366 40.434 150.21 41.1234 150.21 41.9321ZM173.755 44.6665V35.7276H176.738V51.0003H173.815V48.3554H173.656C173.305 49.1708 172.741 49.8502 171.966 50.3938C171.197 50.9307 170.239 51.1992 169.092 51.1992C168.111 51.1992 167.243 50.9837 166.487 50.5529C165.738 50.1154 165.148 49.4691 164.717 48.6139C164.293 47.7588 164.081 46.7015 164.081 45.4421V35.7276H167.054V45.0841C167.054 46.1248 167.342 46.9534 167.919 47.5699C168.495 48.1864 169.244 48.4946 170.166 48.4946C170.723 48.4946 171.276 48.3554 171.826 48.077C172.383 47.7986 172.844 47.3777 173.208 46.8142C173.58 46.2508 173.762 45.5349 173.755 44.6665ZM183.706 41.9321V51.0003H180.733V35.7276H183.587V38.2134H183.776C184.127 37.4047 184.677 36.755 185.426 36.2645C186.182 35.774 187.133 35.5287 188.28 35.5287C189.321 35.5287 190.232 35.7475 191.014 36.185C191.796 36.6158 192.403 37.2588 192.834 38.1139C193.265 38.969 193.48 40.0263 193.48 41.2858V51.0003H190.507V41.6438C190.507 40.5368 190.219 39.6717 189.642 39.0486C189.065 38.4189 188.273 38.104 187.266 38.104C186.576 38.104 185.963 38.2531 185.426 38.5514C184.896 38.8497 184.475 39.2872 184.163 39.8639C183.858 40.434 183.706 41.1234 183.706 41.9321ZM203.185 51.2986C201.952 51.2986 200.851 50.9837 199.884 50.354C198.922 49.7176 198.167 48.8128 197.616 47.6395C197.073 46.4596 196.801 45.0443 196.801 43.3938C196.801 41.7432 197.076 40.3313 197.626 39.158C198.183 37.9847 198.946 37.0865 199.913 36.4634C200.881 35.8403 201.978 35.5287 203.205 35.5287C204.152 35.5287 204.915 35.6878 205.491 36.006C206.075 36.3175 206.526 36.6821 206.844 37.0997C207.169 37.5173 207.42 37.8852 207.599 38.2034H207.778V30.6367H210.751V51.0003H207.848V48.6239H207.599C207.42 48.9487 207.162 49.3199 206.824 49.7375C206.492 50.1551 206.035 50.5197 205.452 50.8313C204.868 51.1428 204.113 51.2986 203.185 51.2986ZM203.841 48.7631C204.696 48.7631 205.419 48.5377 206.009 48.0869C206.605 47.6296 207.056 46.9965 207.361 46.1878C207.672 45.3791 207.828 44.4378 207.828 43.3639C207.828 42.3033 207.676 41.3753 207.371 40.5798C207.066 39.7844 206.618 39.1646 206.028 38.7205C205.438 38.2763 204.709 38.0543 203.841 38.0543C202.946 38.0543 202.2 38.2863 201.604 38.7503C201.007 39.2143 200.556 39.8474 200.251 40.6494C199.953 41.4515 199.804 42.3564 199.804 43.3639C199.804 44.3848 199.956 45.3029 200.261 46.1182C200.566 46.9335 201.017 47.5798 201.614 48.0571C202.217 48.5278 202.959 48.7631 203.841 48.7631ZM221.577 51.3085C220.072 51.3085 218.776 50.987 217.689 50.3441C216.609 49.6944 215.774 48.783 215.184 47.6097C214.6 46.4298 214.309 45.0476 214.309 43.4634C214.309 41.899 214.6 40.5202 215.184 39.327C215.774 38.1338 216.596 37.2025 217.65 36.533C218.71 35.8635 219.95 35.5287 221.368 35.5287C222.23 35.5287 223.065 35.6712 223.874 35.9563C224.683 36.2413 225.408 36.6887 226.051 37.2986C226.694 37.9084 227.202 38.7006 227.573 39.675C227.944 40.6428 228.13 41.8194 228.13 43.2048V44.2588H215.989V42.0315H225.216C225.216 41.2494 225.057 40.5566 224.739 39.9534C224.421 39.3436 223.973 38.863 223.397 38.5117C222.827 38.1603 222.157 37.9847 221.388 37.9847C220.553 37.9847 219.824 38.1902 219.201 38.6012C218.584 39.0055 218.107 39.5358 217.769 40.1921C217.437 40.8417 217.272 41.5476 217.272 42.31V44.05C217.272 45.0708 217.451 45.9392 217.809 46.6551C218.173 47.371 218.68 47.9179 219.33 48.2958C219.98 48.667 220.739 48.8526 221.607 48.8526C222.17 48.8526 222.684 48.773 223.148 48.6139C223.612 48.4482 224.013 48.203 224.351 47.8781C224.689 47.5533 224.948 47.1523 225.127 46.675L227.941 47.1821C227.715 48.0107 227.311 48.7366 226.728 49.3597C226.151 49.9762 225.425 50.4567 224.55 50.8014C223.682 51.1395 222.691 51.3085 221.577 51.3085ZM231.428 51.0003V35.7276H234.302V38.1537H234.461C234.739 37.3317 235.23 36.6854 235.933 36.2148C236.642 35.7375 237.444 35.4989 238.339 35.4989C238.524 35.4989 238.743 35.5055 238.995 35.5188C239.254 35.532 239.456 35.5486 239.602 35.5685V38.4122C239.482 38.3791 239.27 38.3426 238.965 38.3029C238.66 38.2565 238.355 38.2333 238.05 38.2333C237.348 38.2333 236.721 38.3824 236.171 38.6807C235.628 38.9724 235.197 39.38 234.879 39.9037C234.56 40.4208 234.401 41.0107 234.401 41.6736V51.0003H231.428ZM242.413 51.0003V30.6367H245.386V38.2034H245.565C245.737 37.8852 245.986 37.5173 246.311 37.0997C246.636 36.6821 247.086 36.3175 247.663 36.006C248.24 35.6878 249.002 35.5287 249.95 35.5287C251.183 35.5287 252.283 35.8403 253.251 36.4634C254.219 37.0865 254.978 37.9847 255.528 39.158C256.085 40.3313 256.363 41.7432 256.363 43.3938C256.363 45.0443 256.088 46.4596 255.538 47.6395C254.988 48.8128 254.232 49.7176 253.271 50.354C252.31 50.9837 251.213 51.2986 249.98 51.2986C249.052 51.2986 248.293 51.1428 247.703 50.8313C247.119 50.5197 246.662 50.1551 246.331 49.7375C245.999 49.3199 245.744 48.9487 245.565 48.6239H245.316V51.0003H242.413ZM245.326 43.3639C245.326 44.4378 245.482 45.3791 245.794 46.1878C246.105 46.9965 246.556 47.6296 247.146 48.0869C247.736 48.5377 248.458 48.7631 249.314 48.7631C250.202 48.7631 250.944 48.5278 251.541 48.0571C252.137 47.5798 252.588 46.9335 252.893 46.1182C253.205 45.3029 253.36 44.3848 253.36 43.3639C253.36 42.3564 253.208 41.4515 252.903 40.6494C252.605 39.8474 252.154 39.2143 251.551 38.7503C250.954 38.2863 250.208 38.0543 249.314 38.0543C248.452 38.0543 247.723 38.2763 247.126 38.7205C246.536 39.1646 246.089 39.7844 245.784 40.5798C245.479 41.3753 245.326 42.3033 245.326 43.3639ZM259.702 51.0003V35.7276H262.675V51.0003H259.702ZM261.203 33.371C260.686 33.371 260.242 33.1987 259.871 32.854C259.506 32.5027 259.324 32.0851 259.324 31.6012C259.324 31.1106 259.506 30.693 259.871 30.3483C260.242 29.997 260.686 29.8213 261.203 29.8213C261.72 29.8213 262.161 29.997 262.526 30.3483C262.897 30.693 263.082 31.1106 263.082 31.6012C263.082 32.0851 262.897 32.5027 262.526 32.854C262.161 33.1987 261.72 33.371 261.203 33.371ZM266.674 51.0003V35.7276H269.548V38.1537H269.707C269.985 37.3317 270.476 36.6854 271.179 36.2148C271.888 35.7375 272.69 35.4989 273.585 35.4989C273.77 35.4989 273.989 35.5055 274.241 35.5188C274.5 35.532 274.702 35.5486 274.848 35.5685V38.4122C274.728 38.3791 274.516 38.3426 274.211 38.3029C273.906 38.2565 273.601 38.2333 273.297 38.2333C272.594 38.2333 271.967 38.3824 271.417 38.6807C270.874 38.9724 270.443 39.38 270.125 39.9037C269.806 40.4208 269.647 41.0107 269.647 41.6736V51.0003H266.674ZM282.591 51.2986C281.358 51.2986 280.258 50.9837 279.29 50.354C278.329 49.7176 277.573 48.8128 277.023 47.6395C276.479 46.4596 276.207 45.0443 276.207 43.3938C276.207 41.7432 276.482 40.3313 277.033 39.158C277.589 37.9847 278.352 37.0865 279.32 36.4634C280.287 35.8403 281.384 35.5287 282.611 35.5287C283.559 35.5287 284.321 35.6878 284.898 36.006C285.481 36.3175 285.932 36.6821 286.25 37.0997C286.575 37.5173 286.827 37.8852 287.006 38.2034H287.185V30.6367H290.158V51.0003H287.254V48.6239H287.006C286.827 48.9487 286.568 49.3199 286.23 49.7375C285.899 50.1551 285.441 50.5197 284.858 50.8313C284.275 51.1428 283.519 51.2986 282.591 51.2986ZM283.247 48.7631C284.102 48.7631 284.825 48.5377 285.415 48.0869C286.011 47.6296 286.462 46.9965 286.767 46.1878C287.079 45.3791 287.234 44.4378 287.234 43.3639C287.234 42.3033 287.082 41.3753 286.777 40.5798C286.472 39.7844 286.025 39.1646 285.435 38.7205C284.845 38.2763 284.116 38.0543 283.247 38.0543C282.352 38.0543 281.607 38.2863 281.01 38.7503C280.413 39.2143 279.963 39.8474 279.658 40.6494C279.359 41.4515 279.21 42.3564 279.21 43.3639C279.21 44.3848 279.363 45.3029 279.668 46.1182C279.973 46.9335 280.423 47.5798 281.02 48.0571C281.623 48.5278 282.366 48.7631 283.247 48.7631Z" fill="#EEEEF0"/>
<path d="M164.072 105L160.096 95.9282H138.032L134.056 105H130.136L147.104 66.5282H151.024L167.992 105H164.072ZM139.6 92.4562H158.528L149.064 70.9522L139.6 92.4562ZM188.885 75.3762C196.333 75.3762 202.101 81.8722 202.101 90.4962C202.101 99.1762 196.333 105.672 188.885 105.672C184.125 105.672 180.317 103.264 178.077 99.3442V114.632H174.605V76.0482H178.077V81.7042C180.317 77.7842 184.125 75.3762 188.885 75.3762ZM188.269 102.48C194.093 102.48 198.517 97.3282 198.517 90.4962C198.517 83.6642 194.093 78.5682 188.269 78.5682C182.277 78.5682 178.077 83.4962 178.077 90.4962C178.077 97.4962 182.277 102.48 188.269 102.48ZM222.135 75.3762C229.583 75.3762 235.351 81.8722 235.351 90.4962C235.351 99.1762 229.583 105.672 222.135 105.672C217.375 105.672 213.567 103.264 211.327 99.3442V114.632H207.855V76.0482H211.327V81.7042C213.567 77.7842 217.375 75.3762 222.135 75.3762ZM221.519 102.48C227.343 102.48 231.767 97.3282 231.767 90.4962C231.767 83.6642 227.343 78.5682 221.519 78.5682C215.527 78.5682 211.327 83.4962 211.327 90.4962C211.327 97.4962 215.527 102.48 221.519 102.48ZM254.825 105.672C246.649 105.672 239.873 98.7842 239.873 90.4962C239.873 82.2082 246.649 75.3762 254.825 75.3762C263.001 75.3762 269.777 82.2082 269.777 90.4962C269.777 98.7842 263.001 105.672 254.825 105.672ZM254.825 102.48C261.041 102.48 266.193 97.0482 266.193 90.4962C266.193 83.9442 261.041 78.5682 254.825 78.5682C248.609 78.5682 243.457 83.9442 243.457 90.4962C243.457 97.0482 248.609 102.48 254.825 102.48ZM277.183 70.3922C275.839 70.3922 274.775 69.3282 274.775 67.9842C274.775 66.6962 275.839 65.5762 277.183 65.5762C278.471 65.5762 279.591 66.6962 279.591 67.9842C279.591 69.3282 278.471 70.3922 277.183 70.3922ZM275.447 105V76.0482H278.919V105H275.447ZM298.666 75.3762C305.05 75.3762 309.474 79.8562 309.474 86.4082V105H306.002V86.8562C306.002 81.9282 302.81 78.5682 298.162 78.5682C293.066 78.5682 289.146 82.0402 289.146 86.5762V105H285.674V76.0482H289.146V80.7522C290.714 77.5602 294.354 75.3762 298.666 75.3762ZM328.812 101.248L330.604 103.824C329.092 105 327.132 105.672 325.228 105.672C321.308 105.672 318.508 102.592 318.508 98.2802V79.2402H313.804V76.0482H318.508V68.0962H321.98V76.0482H329.26V79.2402H321.98V98.2802C321.98 100.744 323.548 102.48 325.452 102.48C326.796 102.48 328.028 101.976 328.812 101.248ZM366.676 75.3762C372.668 75.3762 376.812 79.9682 376.812 86.4082V105H373.34V86.8562C373.34 81.9842 370.428 78.5682 366.228 78.5682C361.468 78.5682 358.108 81.8162 358.108 86.4082V105H354.636V86.8562C354.636 81.9842 351.668 78.5682 347.524 78.5682C342.764 78.5682 339.404 81.8162 339.404 86.4082V105H335.932V76.0482H339.404V80.2482C340.804 77.2802 343.996 75.3762 347.972 75.3762C351.836 75.3762 354.972 77.3362 356.652 80.4162C358.724 77.2802 362.308 75.3762 366.676 75.3762ZM396.619 102.48C400.315 102.48 404.291 101.024 406.307 98.8402L408.491 101.192C405.971 103.88 400.931 105.672 396.675 105.672C388.947 105.672 382.171 99.1202 382.171 90.4402C382.171 81.8722 388.555 75.3762 396.395 75.3762C405.019 75.3762 410.171 81.9282 410.171 91.8962H385.699C386.315 97.8882 390.683 102.48 396.619 102.48ZM396.507 78.5682C390.907 78.5682 386.483 82.7122 385.755 88.7042H406.699C406.251 82.8802 402.667 78.5682 396.507 78.5682ZM428.658 75.3762C435.042 75.3762 439.466 79.8562 439.466 86.4082V105H435.994V86.8562C435.994 81.9282 432.802 78.5682 428.154 78.5682C423.058 78.5682 419.138 82.0402 419.138 86.5762V105H415.666V76.0482H419.138V80.7522C420.706 77.5602 424.346 75.3762 428.658 75.3762ZM458.804 101.248L460.596 103.824C459.084 105 457.124 105.672 455.22 105.672C451.3 105.672 448.5 102.592 448.5 98.2802V79.2402H443.796V76.0482H448.5V68.0962H451.972V76.0482H459.252V79.2402H451.972V98.2802C451.972 100.744 453.54 102.48 455.444 102.48C456.788 102.48 458.02 101.976 458.804 101.248Z" fill="#EEEEF0"/>
<path d="M101.887 80.2617H59.064C57.8031 80.2617 56.7803 81.2845 56.7803 82.5455V89.3967C56.7803 99.4885 64.9599 107.668 75.0517 107.668H98.747C106.314 107.668 112.45 101.533 112.45 93.9657V87.9694C112.45 84.5438 109.024 80.2617 101.887 80.2617Z" fill="#008787"/>
<path opacity="0.9" d="M101.887 80.2617H59.064C57.8031 80.2617 56.7803 81.2845 56.7803 82.5455V89.3967C56.7803 99.4885 64.9599 107.668 75.0517 107.668H98.747C106.314 107.668 112.45 101.533 112.45 93.9657V87.9694C112.45 84.5438 109.024 80.2617 101.887 80.2617Z" fill="url(#paint0_linear_182_1524)"/>
<g filter="url(#filter0_d_182_1524)">
<path d="M50.6723 30.2261H50.6828C54.1149 18.2284 69.07 12.3711 84.3101 12.3711C94.8395 12.3711 104.294 15.706 110.774 20.9982C106.76 21.1972 102.941 21.9827 99.4454 23.2504C104.682 25.1956 109.18 28.1905 112.514 31.8954C110.302 31.5132 108.008 31.312 105.656 31.312C105.402 31.312 105.149 31.3144 104.896 31.319C110.954 40.1017 114.501 50.7491 114.501 62.2252C114.501 92.3247 90.1005 116.725 60.001 116.725C30.3654 116.725 5.50098 91.9116 5.50098 62.2251C5.50098 57.5367 6.12504 52.6942 7.3344 48.1557C7.65076 47.2023 8.09325 46.288 8.68084 45.9536C9.41626 45.535 10.0847 46.783 10.193 47.1894C10.9917 50.188 12.0677 53.0882 13.3951 55.8662C13.2792 49.6432 15.937 43.9765 19.5943 39.0734C22.0321 35.8054 24.2919 32.7758 25.3356 24.0358C25.4057 23.4491 25.962 23.0268 26.5235 23.2107C34.4594 25.8089 38.7019 39.0224 38.0413 50.0717C42.4254 50.6984 42.4051 46.1192 42.4051 46.1192C41.0037 41.8128 41.9381 33.8075 50.6581 30.2261H50.6723Z" fill="url(#paint1_linear_182_1524)"/>
<path opacity="0.9" d="M112.717 48.3467C114.042 78.3221 89.4009 104.165 59.3518 104.165C31.2228 104.165 8.17183 82.4233 6.08687 54.828C5.71951 57.3774 5.52065 59.9812 5.50195 62.6279C5.71542 92.1577 30.5196 116.725 60.0006 116.725C90.0999 116.725 114.5 92.325 114.5 62.2256C114.5 57.4294 113.88 52.7779 112.717 48.3467Z" fill="url(#paint2_radial_182_1524)"/>
<path d="M58.6735 34.1986C58.086 33.1592 55.3747 31.6229 54.1901 31.3548C58.6735 16.9904 81.521 12.5803 95.5045 15.1218C101.323 16.1793 108.571 19.3518 110.775 20.9983C104.295 15.706 94.8403 12.3711 84.3107 12.3711C69.0705 12.3711 54.1151 18.2285 50.6832 30.2263H50.6726H50.6584C41.9383 33.8076 41.005 41.8155 42.4065 46.122C43.751 40.9851 50.1532 34.6725 58.6735 34.1986Z" fill="url(#paint3_linear_182_1524)"/>
<path d="M74.5106 24.2787C62.2683 26.6875 58.2676 27.4747 54.1699 31.3698C58.7717 19.1871 70.5183 16.7188 84.5143 22.2713C80.6622 23.0683 77.3627 23.7175 74.5106 24.2787Z" fill="url(#paint4_linear_182_1524)"/>
<path d="M8.45942 46.4874C5.11498 60.1803 7.69929 76.2753 22.8939 89.7821C18.3702 84.8361 12.8481 66.5702 25.0354 53.5203C25.8563 52.6412 27.2687 53.2882 27.3132 54.4902C28.3173 81.6092 50.2014 98.1726 75.4296 95.0752C67.6125 94.636 41.7608 85.582 60.9912 81.9995C71.0432 80.1269 86.8039 77.1908 86.8039 63.0506C86.8039 40.1248 69.0776 33.4222 58.3295 34.4194C50.9729 35.102 44.4256 39.7697 42.4098 46.1175C43.1834 48.6206 40.0997 50.373 38.0416 50.0788C38.7023 39.0294 34.4597 25.8088 26.5237 23.2105C25.9622 23.0267 25.4058 23.449 25.3357 24.0357C24.292 32.7758 22.0322 35.8054 19.5944 39.0735C15.937 43.9766 13.2792 49.6432 13.3951 55.8665C12.0677 53.0884 10.9916 50.1883 10.1929 47.1896C10.1033 46.853 9.61664 45.9152 9.02748 45.8709C8.70856 45.8469 8.53976 46.1584 8.45942 46.4874Z" fill="url(#paint5_radial_182_1524)"/>
<path d="M54.2383 83.3873C69.0369 95.4034 98.7996 86.3948 98.7996 57.1768C86.7834 75.3906 71.4799 87.9532 54.2383 83.3873Z" fill="url(#paint6_linear_182_1524)"/>
<path d="M25.035 53.5206C25.3474 53.186 25.7459 53.0711 26.1224 53.1234C15.2129 66.4283 24.0117 89.7974 30.051 95.5377C30.3884 96.4937 24.3224 91.5227 23.4859 90.3585C18.8926 86.4613 12.309 67.1473 25.035 53.5206Z" fill="url(#paint7_linear_182_1524)"/>
<path d="M60.0007 84.4878C74.8039 84.4878 86.8043 74.6961 86.8043 62.6174C86.8043 50.5388 74.8039 40.7471 60.0007 40.7471C47.3721 40.7471 33.1927 48.9631 33.1973 62.9366C33.2045 84.5307 56.0165 96.9533 75.4619 95.0728C74.0014 94.9033 64.8895 94.4193 58.7306 87.4521C58.1752 86.8239 57.211 85.7285 57.6483 85.0163C58.0856 84.3041 59.2872 84.4878 60.0007 84.4878Z" fill="url(#paint8_linear_182_1524)"/>
<path opacity="0.7" d="M60.0007 84.4876C74.8039 84.4876 86.8043 74.6959 86.8043 62.6173C86.8043 58.9291 85.6854 55.4542 83.7096 52.4062L62.4359 71.7281C60.9503 73.0774 58.4479 73.0774 56.9623 71.7281L36.0843 52.7657C34.2675 55.6864 33.1961 59.0937 33.1973 62.9365C33.2045 84.5306 56.0165 96.9532 75.4619 95.0726C75.3737 95.0624 75.2578 95.051 75.1163 95.0372C72.9119 94.8212 64.5175 93.9983 58.7306 87.452C58.1752 86.8238 57.211 85.7284 57.6483 85.0162C58.0156 84.4181 58.9217 84.4518 59.6253 84.4779C59.7595 84.4829 59.8864 84.4876 60.0007 84.4876Z" fill="url(#paint9_linear_182_1524)"/>
<g filter="url(#filter1_f_182_1524)">
<path fill-rule="evenodd" clip-rule="evenodd" d="M53.7791 71.8565C49.8317 67.7479 38.0088 54.1007 38.0088 54.1007L38.924 54.14L57.4315 67.9636C58.8181 68.9708 60.7945 68.9607 62.1685 67.9394L80.3167 54.1578L81.2802 54.083C81.2802 54.083 69.8441 67.407 65.4639 71.7967C61.0837 76.1865 57.7265 75.965 53.7791 71.8565Z" fill="#458FCD"/>
</g>
<path d="M62.6324 72.9782L83.8629 52.7078C79.3678 45.7734 71.0766 40.7471 60.0142 40.7471C50.8594 40.7471 40.8784 45.0658 36.0879 52.7646L56.6529 72.9782C58.1385 74.3275 61.1468 74.3275 62.6324 72.9782Z" fill="url(#paint10_linear_182_1524)"/>
<path opacity="0.6" d="M83.8848 52.6808L62.7021 72.9491C60.8221 74.2844 58.8211 74.3828 56.8454 73.1699L36.0713 52.7538C36.6564 51.8104 37.3229 50.9064 38.0632 50.0478C38.8117 50.7478 39.5365 51.4266 40.2437 52.089C45.7013 57.2008 50.1126 61.3326 56.3297 66.6388C59.1364 69.0342 60.0086 68.9871 62.7601 66.6388C69.8745 60.5668 75.0757 55.9716 81.8393 49.9336C82.6 50.8041 83.2845 51.722 83.8848 52.6808Z" fill="white"/>
<path d="M63.7603 29.8074C66.6287 28.9042 66.3777 26.0645 66.3777 26.0645C66.3777 26.0645 64.9425 24.3761 62.1008 25.3119C59.4405 26.1879 59.0283 28.082 59.0283 28.082C59.0283 28.082 60.4816 30.8399 63.7603 29.8074Z" fill="white"/>
</g>
<mask id="mask0_182_1524" style="mask-type:alpha" maskUnits="userSpaceOnUse" x="5" y="12" width="110" height="105">
<path d="M50.6724 30.1997L50.6829 30.1997C54.115 18.202 69.0701 12.3447 84.3102 12.3447C94.8396 12.3447 104.294 15.6796 110.774 20.9718C106.76 21.1708 102.941 21.9563 99.4454 23.224C104.682 25.1693 109.18 28.1641 112.514 31.869C110.302 31.4868 108.008 31.2857 105.656 31.2857C105.402 31.2857 105.149 31.288 104.896 31.2927C110.954 40.0753 114.501 50.7229 114.501 62.1989C114.501 92.2984 90.1005 116.699 60.001 116.699C30.3654 116.699 5.50098 91.8853 5.50098 62.1989C5.50098 57.5104 6.12504 52.6679 7.3344 48.1293C7.65077 47.1759 8.09326 46.2616 8.68085 45.9272C9.41627 45.5086 10.0847 46.7566 10.1929 47.1631C10.9917 50.1617 12.0677 53.0619 13.3951 55.84C13.2792 49.6168 15.937 43.9501 19.5943 39.047C22.032 35.779 24.2919 32.7495 25.3356 24.0094C25.4056 23.4228 25.962 23.0004 26.5235 23.1843C34.4595 25.7825 38.702 38.996 38.0413 50.0454C42.4255 50.6721 42.4052 46.0929 42.4052 46.0929C41.0038 41.7864 41.9382 33.7811 50.6582 30.1997L50.6724 30.1997Z" fill="url(#paint11_linear_182_1524)"/>
</mask>
<g mask="url(#mask0_182_1524)">
<path opacity="0.2" d="M110.015 86.4419H67.5923C57.5523 86.4419 49.4121 95.0392 49.4121 105.643V115.034C49.4121 116.47 50.5143 117.633 51.873 117.633H94.2961C104.336 117.633 112.476 109.037 112.476 98.4317V83.8428C112.476 85.2795 111.374 86.4419 110.015 86.4419Z" fill="black"/>
</g>
<path d="M110.168 90.2535H70.7991C61.4819 90.2535 53.9277 97.8076 53.9277 107.125V115.376C53.9277 116.639 54.9505 117.66 56.2115 117.66H95.5803C104.898 117.66 112.452 110.107 112.452 100.789V87.9697C112.452 89.2321 111.429 90.2535 110.168 90.2535Z" fill="url(#paint12_linear_182_1524)"/>
<path d="M64.0645 98.2891H68.7926C71.3303 98.2891 72.7548 99.4324 72.7548 101.484C72.7736 101.954 72.6604 102.421 72.4279 102.83C72.1954 103.239 71.853 103.576 71.4393 103.8C72.3947 104.287 72.9269 105.147 72.9269 106.338C72.9269 108.593 71.3604 109.721 68.8242 109.721H64.0645V98.2891ZM66.2406 100.247V102.892H68.8715C70.0464 102.892 70.547 102.314 70.547 101.531C70.547 100.732 69.9976 100.247 68.84 100.247H66.2406ZM66.2406 104.882V107.731H68.8557C70.0622 107.731 70.6876 107.183 70.6876 106.291C70.6876 105.4 70.1568 104.882 68.7625 104.882H66.2406ZM75.0399 98.2891H82.7275V100.372H77.2477V102.94H82.7275V105.023H77.2477V107.622H82.7275V109.721H75.0399V98.2891ZM87.8014 100.325H84.6225V98.2905H93.1249V100.325H89.9776V109.721H87.8L87.8014 100.325ZM96.8661 98.2891H99.0423L103.363 109.721H101.094L100.342 107.638H95.5664L94.8148 109.721H92.5439L96.8661 98.2891ZM96.3023 105.634H99.606L97.9621 101.092L96.3023 105.634Z" fill="#20123A"/>
<defs>
<filter id="filter0_d_182_1524" x="0.167643" y="8.37109" width="119.667" height="115.021" filterUnits="userSpaceOnUse" color-interpolation-filters="sRGB">
<feFlood flood-opacity="0" result="BackgroundImageFix"/>
<feColorMatrix in="SourceAlpha" type="matrix" values="0 0 0 0 0 0 0 0 0 0 0 0 0 0 0 0 0 0 127 0" result="hardAlpha"/>
<feOffset dy="1.33333"/>
<feGaussianBlur stdDeviation="2.66667"/>
<feComposite in2="hardAlpha" operator="out"/>
<feColorMatrix type="matrix" values="0 0 0 0 0.000624525 0 0 0 0 0.276128 0 0 0 0 0.599544 0 0 0 0.39 0"/>
<feBlend mode="normal" in2="BackgroundImageFix" result="effect1_dropShadow_182_1524"/>
<feBlend mode="normal" in="SourceGraphic" in2="effect1_dropShadow_182_1524" result="shape"/>
</filter>
<filter id="filter1_f_182_1524" x="36.0088" y="52.083" width="47.2715" height="24.9307" filterUnits="userSpaceOnUse" color-interpolation-filters="sRGB">
<feFlood flood-opacity="0" result="BackgroundImageFix"/>
<feBlend mode="normal" in="SourceGraphic" in2="BackgroundImageFix" result="shape"/>
<feGaussianBlur stdDeviation="0.999999" result="effect1_foregroundBlur_182_1524"/>
</filter>
<linearGradient id="paint0_linear_182_1524" x1="100.754" y1="106.552" x2="85.932" y2="92.5192" gradientUnits="userSpaceOnUse">
<stop stop-color="#054096" stop-opacity="0.5"/>
<stop offset="0.054" stop-color="#0F3D9C" stop-opacity="0.441"/>
<stop offset="0.261" stop-color="#2F35B1" stop-opacity="0.249"/>
<stop offset="0.466" stop-color="#462FBF" stop-opacity="0.111"/>
<stop offset="0.669" stop-color="#542BC8" stop-opacity="0.028"/>
<stop offset="0.864" stop-color="#592ACB" stop-opacity="0"/>
</linearGradient>
<linearGradient id="paint1_linear_182_1524" x1="50.1811" y1="-39.0271" x2="3.79316" y2="107.498" gradientUnits="userSpaceOnUse">
<stop stop-color="#107781"/>
<stop offset="1" stop-color="#105BBC"/>
</linearGradient>
<radialGradient id="paint2_radial_182_1524" cx="0" cy="0" r="1" gradientUnits="userSpaceOnUse" gradientTransform="translate(24.2754 54.9932) rotate(66.5179) scale(46.0847 44.1479)">
<stop offset="0.525579" stop-color="#0B4186" stop-opacity="0"/>
<stop offset="1" stop-color="#0B4186" stop-opacity="0.45"/>
</radialGradient>
<linearGradient id="paint3_linear_182_1524" x1="47.388" y1="12.3711" x2="106.677" y2="41.9001" gradientUnits="userSpaceOnUse">
<stop stop-color="#0DB7BD"/>
<stop offset="1" stop-color="#2493EF"/>
</linearGradient>
<linearGradient id="paint4_linear_182_1524" x1="66.6084" y1="13.5867" x2="64.2581" y2="31.6879" gradientUnits="userSpaceOnUse">
<stop stop-color="#107781"/>
<stop offset="1" stop-color="#105BBC"/>
</linearGradient>
<radialGradient id="paint5_radial_182_1524" cx="0" cy="0" r="1" gradientUnits="userSpaceOnUse" gradientTransform="translate(39.447 91.9202) rotate(-64.2627) scale(71.897 88.8136)">
<stop offset="0.0160882" stop-color="#094188"/>
<stop offset="0.967387" stop-color="#0B4186" stop-opacity="0"/>
</radialGradient>
<linearGradient id="paint6_linear_182_1524" x1="57.8032" y1="57.1768" x2="100.532" y2="71.9805" gradientUnits="userSpaceOnUse">
<stop stop-color="#0DB7BD"/>
<stop offset="1" stop-color="#2493EF"/>
</linearGradient>
<linearGradient id="paint7_linear_182_1524" x1="18.6301" y1="53.1113" x2="31.9108" y2="54.0578" gradientUnits="userSpaceOnUse">
<stop stop-color="#0DB7BD"/>
<stop offset="1" stop-color="#2493EF"/>
</linearGradient>
<linearGradient id="paint8_linear_182_1524" x1="60.0016" y1="48.7564" x2="60.0016" y2="94.8482" gradientUnits="userSpaceOnUse">
<stop stop-color="white"/>
<stop offset="0.90535" stop-color="#BEE1FE"/>
<stop offset="1" stop-color="#96CEFD"/>
</linearGradient>
<linearGradient id="paint9_linear_182_1524" x1="60.8637" y1="74.8385" x2="60.8637" y2="94.1473" gradientUnits="userSpaceOnUse">
<stop stop-color="#BCE0FD"/>
<stop offset="1" stop-color="#88CCFC"/>
</linearGradient>
<linearGradient id="paint10_linear_182_1524" x1="59.912" y1="45.4477" x2="59.9755" y2="96.032" gradientUnits="userSpaceOnUse">
<stop stop-color="white"/>
<stop offset="0.90535" stop-color="#BEE1FE"/>
<stop offset="1" stop-color="#96CEFD"/>
</linearGradient>
<linearGradient id="paint11_linear_182_1524" x1="24.4174" y1="30.3081" x2="101.246" y2="101.972" gradientUnits="userSpaceOnUse">
<stop stop-color="#1B91F3"/>
<stop offset="1" stop-color="#0B68CB"/>
</linearGradient>
<linearGradient id="paint12_linear_182_1524" x1="60.3559" y1="92.7681" x2="113.865" y2="115.409" gradientUnits="userSpaceOnUse">
<stop offset="0.001" stop-color="#54FFBD"/>
<stop offset="1" stop-color="#00DDFF"/>
</linearGradient>
</defs>
</svg>
