<svg width="173" height="36" viewBox="0 0 173 36" fill="none" xmlns="http://www.w3.org/2000/svg">
<path d="M15.6907 6.15959H15.6944C16.8865 2.02061 22.0813 0 27.375 0C31.0325 0 34.3168 1.15048 36.5676 2.97614C35.1732 3.0448 33.8466 3.31575 32.6325 3.75312C34.4512 4.42417 36.0138 5.45738 37.172 6.73545C36.4036 6.60362 35.6067 6.53422 34.7895 6.53422C34.7015 6.53422 34.6135 6.53508 34.5259 6.53669C36.63 9.5665 37.8621 13.2396 37.8621 17.1987C37.8621 27.5824 29.3864 36 18.9311 36C8.63691 36 0 27.4398 0 17.1987C0 15.5812 0.216776 13.9107 0.636861 12.3449C0.746748 12.016 0.900456 11.7006 1.10455 11.5852C1.36001 11.4408 1.59218 11.8713 1.6298 12.0116C1.90723 13.046 2.28106 14.0466 2.74211 15.0049C2.70187 12.8581 3.62505 10.9032 4.89549 9.21174C5.74219 8.08431 6.52712 7.03917 6.88973 4.02408C6.91407 3.82167 7.10728 3.67598 7.30232 3.73937C10.059 4.63571 11.5881 9.57284 11.3586 13.3847C12.8815 13.6008 12.819 11.6424 12.819 11.6424C12.3322 10.1568 12.6568 7.3951 15.6857 6.15959H15.6907Z" fill="url(#paint0_linear_2149_1721)"/>
<path opacity="0.9" d="M37.2428 12.1035C37.7032 22.5791 29.1435 31.6105 18.7055 31.6105C8.93453 31.6105 0.927416 24.0123 0.203181 14.3685C0.0755733 15.2595 0.00649073 16.1694 0 17.0943C0.0741566 27.4142 8.69026 36 18.9308 36C29.3863 36 37.8621 27.4728 37.8621 16.9538C37.8621 15.2776 37.6469 13.6521 37.2428 12.1035Z" fill="url(#paint1_radial_2149_1721)"/>
<path d="M18.7845 7.42615C18.5834 7.07258 17.6552 6.54979 17.2497 6.45867C18.7845 1.57158 26.6059 0.0711593 31.3928 0.935851C33.3846 1.29568 35.8658 2.37494 36.6204 2.93512C34.4021 1.13462 31.1654 0 27.5608 0C22.3437 0 17.2241 1.99276 16.0492 6.07469H16.0456H16.0407C13.0555 7.29318 12.736 10.0176 13.2158 11.4828C13.6761 9.73513 15.8677 7.58742 18.7845 7.42615Z" fill="url(#paint2_radial_2149_1721)"/>
<path d="M24.0399 3.74671C19.6577 4.68778 18.2255 4.99539 16.7588 6.51723C18.406 1.75738 22.6108 0.792951 27.6209 2.96237C26.242 3.27375 25.0609 3.52745 24.0399 3.74671Z" fill="url(#paint3_linear_2149_1721)"/>
<path d="M1.06886 11.469C-0.0910974 16.1988 0.805228 21.7582 6.07519 26.4237C4.50628 24.7152 2.59097 18.406 6.8179 13.8983C7.10274 13.5946 7.59258 13.8181 7.60803 14.2333C7.60803 26.9095 17.2171 28.4155 22.8339 27.8239C20.1226 27.6722 12.6188 24.9729 19.2886 23.7355C22.775 23.0886 28.2413 22.0744 28.2413 17.1902C28.2413 9.27128 22.0932 6.95609 18.3654 7.30054C15.8139 7.53634 13.5431 9.14865 12.8439 11.3412C13.1122 12.2059 12.0981 13.3494 11.3843 13.2477C11.6134 9.43103 10.0866 4.32625 7.3341 3.42877C7.13935 3.3653 6.94644 3.51117 6.92214 3.71384C6.56007 6.73277 5.77632 7.77924 4.93089 8.90811C3.66236 10.6017 2.74057 12.5591 2.78075 14.7087C2.32039 13.7491 1.94713 12.7473 1.67011 11.7116C1.63901 11.5953 1.47022 11.2714 1.26588 11.256C1.15527 11.2477 1.09673 11.3554 1.06886 11.469Z" fill="url(#paint4_radial_2149_1721)"/>
<path d="M18.3105 25.8625C24.1145 28.7498 33.4752 23.886 31.3463 14.2759C28.6715 21.1313 24.3854 26.1236 18.3105 25.8625Z" fill="url(#paint5_linear_2149_1721)"/>
<path d="M6.87231 13.7985C6.966 13.6813 7.08535 13.6411 7.19817 13.6593C3.92931 18.3176 6.56577 26.4995 8.37535 28.5092C8.47641 28.8439 6.6588 27.1035 6.40816 26.696C5.03184 25.3315 3.05923 18.5694 6.87231 13.7985Z" fill="url(#paint6_linear_2149_1721)"/>
<path d="M19.0863 8.6897C24.1426 8.6897 28.2415 12.7191 28.2415 17.6897C28.2415 19.6313 27.616 21.4293 26.5522 22.8997C24.1273 25.5157 21.163 25.9609 19.2912 25.8853C18.9657 25.8722 18.7822 26.2717 19.0515 26.4518C19.1814 26.5387 19.3083 26.6151 19.4331 26.6832C19.318 26.6875 19.2024 26.6897 19.0863 26.6897C14.03 26.6897 9.93115 22.6603 9.93115 17.6897C9.93115 12.7191 14.03 8.6897 19.0863 8.6897Z" fill="url(#paint7_linear_2149_1721)"/>
<path d="M20.4176 5.52888C21.5069 5.30507 21.4116 4.60138 21.4116 4.60138C21.4116 4.60138 20.8666 4.183 19.7874 4.41484C18.7771 4.63194 18.6206 5.10132 18.6206 5.10132C18.6206 5.10132 19.1725 5.78479 20.4176 5.52888Z" fill="white"/>
<path opacity="0.2" d="M14.6466 13.2396H22.3533V12H23.3133V13.2396H25V14.189H23.3133V21.811H25V22.7604H23.3133V24H22.3533V22.7604H14.6466V24H13.6866V22.7604H12V21.811H13.6866V15.9568H14.6466V21.811H22.3533V14.189H12V13.2396H13.6866V12H14.6466V13.2396Z" fill="#1373D9"/>
<path d="M14.4445 11C14.8126 11 15.1112 11.2986 15.1112 11.6667V12.7909H18.8954C21.7145 12.7909 23.9999 15.0763 24 17.8954C24 20.7152 21.7107 23 18.8922 23C16.0701 23 13.7778 20.7123 13.7778 17.8889V15.2222H15.1112V17.8889C15.1112 19.9746 16.8051 21.6666 18.8922 21.6666C20.9756 21.6666 22.6666 19.9776 22.6666 17.8954C22.6666 15.8127 20.9781 14.1243 18.8954 14.1243H12.6667L12.6324 14.1234C12.2802 14.1056 12 13.8142 12 13.4576C12 13.1009 12.2802 12.8096 12.6324 12.7918L12.6667 12.7909H13.7778V11.6667C13.7778 11.2986 14.0763 11 14.4445 11ZM19.9209 16.143C20.1389 15.8657 20.5384 15.8053 20.8296 16.0115C21.1207 16.2175 21.1966 16.6144 21.0077 16.9121L20.9885 16.9407L19.2319 19.4229C18.954 19.8157 18.4165 19.914 18.019 19.653L17.981 19.6266L16.8283 18.7823L16.8011 18.7614C16.5275 18.5387 16.4736 18.1382 16.6845 17.8504C16.8952 17.5628 17.2933 17.4934 17.5879 17.687L17.6161 17.7066L18.4043 18.2839L19.9003 16.1704L19.9209 16.143Z" fill="url(#paint8_linear_2149_1721)"/>
<path d="M56.8716 24.3927L55.7981 21.7925H48.9434L47.8699 24.3927H45L50.9256 9.98562H53.7955L59.7208 24.3927H56.8716ZM49.8725 19.5275H54.869L52.3708 13.4669L49.8725 19.5275ZM67.4006 13.2991C70.2291 13.2991 72.2937 15.6479 72.2937 18.9613C72.2937 22.2956 70.2291 24.6445 67.4006 24.6445C65.8107 24.6445 64.5307 23.9105 63.684 22.6731V28H61.1654V13.5507H63.684V15.2704C64.5307 14.0331 65.8107 13.2991 67.4006 13.2991ZM66.7191 22.4634C68.5154 22.4634 69.7955 20.9955 69.7955 18.9613C69.7955 16.9271 68.5154 15.4801 66.7191 15.4801C64.9437 15.4801 63.7047 16.9271 63.7047 18.9613C63.7047 20.9955 64.9437 22.4634 66.7191 22.4634ZM80.4562 13.2991C83.2848 13.2991 85.3494 15.6479 85.3494 18.9613C85.3494 22.2956 83.2848 24.6445 80.4562 24.6445C78.8663 24.6445 77.5863 23.9105 76.74 22.6731V28H74.221V13.5507H76.74V15.2704C77.5863 14.0331 78.8663 13.2991 80.4562 13.2991ZM79.775 22.4634C81.5711 22.4634 82.8511 20.9955 82.8511 18.9613C82.8511 16.9271 81.5711 15.4801 79.775 15.4801C77.9993 15.4801 76.7603 16.9271 76.7603 18.9613C76.7603 20.9955 77.9993 22.4634 79.775 22.4634ZM92.3763 24.6445C89.2792 24.6445 86.6572 22.0442 86.6572 18.9613C86.6572 15.8786 89.2792 13.2991 92.3763 13.2991C95.4734 13.2991 98.0954 15.8786 98.0954 18.9613C98.0954 22.0442 95.4734 24.6445 92.3763 24.6445ZM92.3763 22.4634C94.1313 22.4634 95.6178 20.8698 95.6178 18.9613C95.6178 17.0739 94.1313 15.4801 92.3763 15.4801C90.6006 15.4801 89.1141 17.0739 89.1141 18.9613C89.1141 20.8698 90.6006 22.4634 92.3763 22.4634ZM101.147 11.915C100.342 11.915 99.702 11.2229 99.702 10.447C99.702 9.67107 100.342 9 101.147 9C101.932 9 102.572 9.67107 102.572 10.447C102.572 11.2229 101.932 11.915 101.147 11.915ZM99.8671 24.3927V13.5507H102.386V24.3927H99.8671ZM110.579 13.2991C112.912 13.2991 114.544 15.0397 114.544 17.4933V24.3927H112.107V17.9966C112.107 16.5287 111.178 15.4801 109.857 15.4801C108.535 15.4801 107.441 16.3819 107.276 17.5353V24.3927H104.757V13.5507H107.276V14.9977C107.937 13.9911 109.175 13.2991 110.579 13.2991ZM122.192 22.0649L122.914 23.7848C122.316 24.309 121.449 24.6445 120.643 24.6445C118.868 24.6445 117.629 23.3443 117.629 21.5197V15.6688H116.08V13.5507H117.629V10.5728H120.086V13.5507H122.502V15.6688H120.086V21.2053C120.086 21.9392 120.54 22.4634 121.139 22.4634C121.573 22.4634 121.965 22.2956 122.192 22.0649ZM136.783 13.2991C139.012 13.2991 140.685 15.0397 140.685 17.4933V24.3927H138.228V17.9127C138.228 16.4867 137.381 15.4801 136.163 15.4801C134.78 15.4801 133.83 16.4238 133.83 17.745V24.3927H131.373V17.9127C131.373 16.4867 130.527 15.4801 129.288 15.4801C127.925 15.4801 126.955 16.4238 126.955 17.745V24.3927H124.436V13.5507H126.955V15.0187C127.492 13.9702 128.586 13.2991 129.928 13.2991C131.435 13.2991 132.674 14.075 133.335 15.3543C133.851 14.096 135.193 13.2991 136.783 13.2991ZM147.972 22.3797C148.964 22.3797 150.14 21.9182 150.739 21.289L152.329 22.9669C151.4 23.9736 149.542 24.6445 147.993 24.6445C144.937 24.6445 142.418 22.2746 142.418 18.9403C142.418 15.6898 144.813 13.2991 147.848 13.2991C151.152 13.2991 153.072 15.8366 153.072 19.8421H145.02C145.33 21.331 146.445 22.3797 147.972 22.3797ZM147.952 15.564C146.548 15.564 145.412 16.4657 145.04 17.8918H150.657C150.367 16.5287 149.459 15.564 147.952 15.564ZM160.665 13.2991C162.998 13.2991 164.629 15.0397 164.629 17.4933V24.3927H162.193V17.9966C162.193 16.5287 161.264 15.4801 159.942 15.4801C158.621 15.4801 157.527 16.3819 157.362 17.5353V24.3927H154.843V13.5507H157.362V14.9977C158.022 13.9911 159.261 13.2991 160.665 13.2991ZM172.277 22.0649L173 23.7848C172.401 24.309 171.534 24.6445 170.729 24.6445C168.953 24.6445 167.715 23.3443 167.715 21.5197V15.6688H166.166V13.5507H167.715V10.5728H170.171V13.5507H172.587V15.6688H170.171V21.2053C170.171 21.9392 170.626 22.4634 171.224 22.4634C171.658 22.4634 172.05 22.2956 172.277 22.0649Z" fill="white"/>
<defs>
<linearGradient id="paint0_linear_2149_1721" x1="6.57083" y1="6.19698" x2="33.0871" y2="31.1013" gradientUnits="userSpaceOnUse">
<stop stop-color="#1B91F3"/>
<stop offset="1" stop-color="#0B68CB"/>
</linearGradient>
<radialGradient id="paint1_radial_2149_1721" cx="0" cy="0" r="1" gradientTransform="matrix(6.37866 14.7716 -14.0654 6.14768 6.52128 14.4262)" gradientUnits="userSpaceOnUse">
<stop offset="0.525579" stop-color="#0B4186" stop-opacity="0"/>
<stop offset="1" stop-color="#0B4186" stop-opacity="0.45"/>
</radialGradient>
<radialGradient id="paint2_radial_2149_1721" cx="0" cy="0" r="1" gradientTransform="matrix(-2.07618 -2.6416 4.39828 -3.41441 19.7187 8.06135)" gradientUnits="userSpaceOnUse">
<stop stop-color="#A29CF6" stop-opacity="0"/>
<stop offset="1" stop-color="#A39BF6"/>
</radialGradient>
<linearGradient id="paint3_linear_2149_1721" x1="13.7608" y1="13.2808" x2="24.6224" y2="2.20293" gradientUnits="userSpaceOnUse">
<stop stop-color="#0F5DB0"/>
<stop offset="1" stop-color="#0F5DB0" stop-opacity="0"/>
</linearGradient>
<radialGradient id="paint4_radial_2149_1721" cx="0" cy="0" r="1" gradientTransform="matrix(10.8285 -22.3706 27.7476 13.3216 11.8164 27.1622)" gradientUnits="userSpaceOnUse">
<stop offset="0.0160882" stop-color="#094188"/>
<stop offset="0.967387" stop-color="#0B4186" stop-opacity="0"/>
</radialGradient>
<linearGradient id="paint5_linear_2149_1721" x1="30.8343" y1="19.1382" x2="29.7153" y2="27.9425" gradientUnits="userSpaceOnUse">
<stop stop-color="#7B8BE9" stop-opacity="0"/>
<stop offset="1" stop-color="#7B8BE9"/>
</linearGradient>
<linearGradient id="paint6_linear_2149_1721" x1="4.65858" y1="13.6297" x2="7.66313" y2="25.866" gradientUnits="userSpaceOnUse">
<stop offset="0.104632" stop-color="#C59FF9"/>
<stop offset="1" stop-color="#C59FF9" stop-opacity="0"/>
</linearGradient>
<linearGradient id="paint7_linear_2149_1721" x1="20.3579" y1="11.7897" x2="20.8986" y2="32.7901" gradientUnits="userSpaceOnUse">
<stop stop-color="white"/>
<stop offset="0.81088" stop-color="#BEE1FE"/>
<stop offset="1" stop-color="#96CEFD"/>
</linearGradient>
<linearGradient id="paint8_linear_2149_1721" x1="12" y1="11" x2="18.2199" y2="25.4824" gradientUnits="userSpaceOnUse">
<stop stop-color="#6AA9E5"/>
<stop offset="0.994972" stop-color="#0D5BB2"/>
</linearGradient>
</defs>
</svg>
