<svg width="121" height="116" viewBox="0 0 121 116" fill="none" xmlns="http://www.w3.org/2000/svg">
<g clip-path="url(#clip0_182_1482)">
<path d="M101.887 71.2617H59.064C57.8031 71.2617 56.7803 72.2845 56.7803 73.5455V80.3967C56.7803 90.4885 64.9599 98.6682 75.0517 98.6682H98.747C106.314 98.6682 112.45 92.5327 112.45 84.9657V78.9694C112.45 75.5438 109.024 71.2617 101.887 71.2617Z" fill="#008787"/>
<path opacity="0.9" d="M101.887 71.2617H59.064C57.8031 71.2617 56.7803 72.2845 56.7803 73.5455V80.3967C56.7803 90.4885 64.9599 98.6682 75.0517 98.6682H98.747C106.314 98.6682 112.45 92.5327 112.45 84.9657V78.9694C112.45 75.5438 109.024 71.2617 101.887 71.2617Z" fill="url(#paint0_linear_182_1482)"/>
<g filter="url(#filter0_d_182_1482)">
<path d="M50.6723 21.2261H50.6828C54.1149 9.22841 69.07 3.37109 84.3101 3.37109C94.8395 3.37109 104.294 6.706 110.774 11.9982C106.76 12.1972 102.941 12.9827 99.4454 14.2504C104.682 16.1956 109.18 19.1905 112.514 22.8954C110.302 22.5132 108.008 22.312 105.656 22.312C105.402 22.312 105.149 22.3144 104.896 22.319C110.954 31.1017 114.501 41.7491 114.501 53.2252C114.501 83.3247 90.1005 107.725 60.001 107.725C30.3654 107.725 5.50098 82.9116 5.50098 53.2251C5.50098 48.5367 6.12504 43.6942 7.3344 39.1557C7.65076 38.2023 8.09325 37.288 8.68084 36.9536C9.41626 36.535 10.0847 37.783 10.193 38.1894C10.9917 41.188 12.0677 44.0882 13.3951 46.8662C13.2792 40.6432 15.937 34.9765 19.5943 30.0734C22.0321 26.8054 24.2919 23.7758 25.3356 15.0358C25.4057 14.4491 25.962 14.0268 26.5235 14.2107C34.4594 16.8089 38.7019 30.0224 38.0413 41.0717C42.4254 41.6984 42.4051 37.1192 42.4051 37.1192C41.0037 32.8128 41.9381 24.8075 50.6581 21.2261H50.6723Z" fill="url(#paint1_linear_182_1482)"/>
<path opacity="0.9" d="M112.717 39.3467C114.042 69.3221 89.4009 95.1649 59.3518 95.1649C31.2228 95.1649 8.17183 73.4233 6.08687 45.828C5.71951 48.3774 5.52065 50.9812 5.50195 53.6279C5.71542 83.1577 30.5196 107.725 60.0006 107.725C90.0999 107.725 114.5 83.325 114.5 53.2256C114.5 48.4294 113.88 43.7779 112.717 39.3467Z" fill="url(#paint2_radial_182_1482)"/>
<path d="M58.6735 25.1986C58.086 24.1592 55.3747 22.6229 54.1901 22.3548C58.6735 7.9904 81.521 3.58025 95.5045 6.12181C101.323 7.17932 108.571 10.3518 110.775 11.9983C104.295 6.70603 94.8403 3.37109 84.3107 3.37109C69.0705 3.37109 54.1151 9.22847 50.6832 21.2263H50.6726H50.6584C41.9383 24.8076 41.005 32.8155 42.4065 37.122C43.751 31.9851 50.1532 25.6725 58.6735 25.1986Z" fill="url(#paint3_linear_182_1482)"/>
<path d="M74.5106 15.2787C62.2683 17.6875 58.2676 18.4747 54.1699 22.3698C58.7717 10.1871 70.5183 7.71876 84.5143 13.2713C80.6622 14.0683 77.3627 14.7175 74.5106 15.2787Z" fill="url(#paint4_linear_182_1482)"/>
<path d="M8.45942 37.4874C5.11498 51.1803 7.69929 67.2753 22.8939 80.7821C18.3702 75.8361 12.8481 57.5702 25.0354 44.5203C25.8563 43.6412 27.2687 44.2882 27.3132 45.4902C28.3173 72.6092 50.2014 89.1726 75.4296 86.0752C67.6125 85.636 41.7608 76.582 60.9912 72.9995C71.0432 71.1269 86.8039 68.1908 86.8039 54.0506C86.8039 31.1248 69.0776 24.4222 58.3295 25.4194C50.9729 26.102 44.4256 30.7697 42.4098 37.1175C43.1834 39.6206 40.0997 41.373 38.0416 41.0788C38.7023 30.0294 34.4597 16.8088 26.5237 14.2105C25.9622 14.0267 25.4058 14.449 25.3357 15.0357C24.292 23.7758 22.0322 26.8054 19.5944 30.0735C15.937 34.9766 13.2792 40.6432 13.3951 46.8665C12.0677 44.0884 10.9916 41.1883 10.1929 38.1896C10.1033 37.853 9.61664 36.9152 9.02748 36.8709C8.70856 36.8469 8.53976 37.1584 8.45942 37.4874Z" fill="url(#paint5_radial_182_1482)"/>
<path d="M54.2383 74.3873C69.0369 86.4034 98.7996 77.3948 98.7996 48.1768C86.7834 66.3906 71.4799 78.9532 54.2383 74.3873Z" fill="url(#paint6_linear_182_1482)"/>
<path d="M25.035 44.5206C25.3474 44.186 25.7459 44.0711 26.1224 44.1234C15.2129 57.4283 24.0117 80.7974 30.051 86.5377C30.3884 87.4937 24.3224 82.5227 23.4859 81.3585C18.8926 77.4613 12.309 58.1473 25.035 44.5206Z" fill="url(#paint7_linear_182_1482)"/>
<path d="M60.0007 75.4878C74.8039 75.4878 86.8043 65.6961 86.8043 53.6174C86.8043 41.5388 74.8039 31.7471 60.0007 31.7471C47.3721 31.7471 33.1927 39.9631 33.1973 53.9366C33.2045 75.5307 56.0165 87.9533 75.4619 86.0728C74.0014 85.9033 64.8895 85.4193 58.7306 78.4521C58.1752 77.8239 57.211 76.7285 57.6483 76.0163C58.0856 75.3041 59.2872 75.4878 60.0007 75.4878Z" fill="url(#paint8_linear_182_1482)"/>
<path opacity="0.7" d="M60.0007 75.4876C74.8039 75.4876 86.8043 65.6959 86.8043 53.6173C86.8043 49.9291 85.6854 46.4542 83.7096 43.4062L62.4359 62.7281C60.9503 64.0774 58.4479 64.0774 56.9623 62.7281L36.0843 43.7657C34.2675 46.6864 33.1961 50.0937 33.1973 53.9365C33.2045 75.5306 56.0165 87.9532 75.4619 86.0726C75.3737 86.0624 75.2578 86.051 75.1163 86.0372C72.9119 85.8212 64.5175 84.9983 58.7306 78.452C58.1752 77.8238 57.211 76.7284 57.6483 76.0162C58.0156 75.4181 58.9217 75.4518 59.6253 75.4779C59.7595 75.4829 59.8864 75.4876 60.0007 75.4876Z" fill="url(#paint9_linear_182_1482)"/>
<g filter="url(#filter1_f_182_1482)">
<path fill-rule="evenodd" clip-rule="evenodd" d="M53.7791 62.8565C49.8317 58.7479 38.0088 45.1007 38.0088 45.1007L38.924 45.14L57.4315 58.9636C58.8181 59.9708 60.7945 59.9607 62.1685 58.9394L80.3167 45.1578L81.2802 45.083C81.2802 45.083 69.8441 58.407 65.4639 62.7967C61.0837 67.1865 57.7265 66.965 53.7791 62.8565Z" fill="#458FCD"/>
</g>
<path d="M62.6324 63.9782L83.8629 43.7078C79.3678 36.7734 71.0766 31.7471 60.0142 31.7471C50.8594 31.7471 40.8784 36.0658 36.0879 43.7646L56.6529 63.9782C58.1385 65.3275 61.1468 65.3275 62.6324 63.9782Z" fill="url(#paint10_linear_182_1482)"/>
<path opacity="0.6" d="M83.8848 43.6808L62.7021 63.9491C60.8221 65.2844 58.8211 65.3828 56.8454 64.1699L36.0713 43.7538C36.6564 42.8104 37.3229 41.9064 38.0632 41.0478C38.8117 41.7478 39.5365 42.4266 40.2437 43.089C45.7013 48.2008 50.1126 52.3326 56.3297 57.6388C59.1364 60.0342 60.0086 59.9871 62.7601 57.6388C69.8745 51.5668 75.0757 46.9716 81.8393 40.9336C82.6 41.8041 83.2845 42.722 83.8848 43.6808Z" fill="white"/>
<path d="M63.7603 20.8074C66.6287 19.9042 66.3777 17.0645 66.3777 17.0645C66.3777 17.0645 64.9425 15.3761 62.1008 16.3119C59.4405 17.1879 59.0283 19.082 59.0283 19.082C59.0283 19.082 60.4816 21.8399 63.7603 20.8074Z" fill="white"/>
</g>
<mask id="mask0_182_1482" style="mask-type:alpha" maskUnits="userSpaceOnUse" x="5" y="3" width="110" height="105">
<path d="M50.6724 21.1997L50.6829 21.1997C54.115 9.20204 69.0701 3.34473 84.3102 3.34473C94.8396 3.34473 104.294 6.67964 110.774 11.9718C106.76 12.1708 102.941 12.9563 99.4454 14.224C104.682 16.1693 109.18 19.1641 112.514 22.869C110.302 22.4868 108.008 22.2857 105.656 22.2857C105.402 22.2857 105.149 22.288 104.896 22.2927C110.954 31.0753 114.501 41.7229 114.501 53.1989C114.501 83.2984 90.1005 107.699 60.001 107.699C30.3654 107.699 5.50098 82.8853 5.50098 53.1989C5.50098 48.5104 6.12504 43.6679 7.3344 39.1293C7.65077 38.1759 8.09326 37.2616 8.68085 36.9272C9.41627 36.5086 10.0847 37.7566 10.1929 38.1631C10.9917 41.1617 12.0677 44.0619 13.3951 46.84C13.2792 40.6168 15.937 34.9501 19.5943 30.047C22.032 26.779 24.2919 23.7495 25.3356 15.0094C25.4056 14.4228 25.962 14.0004 26.5235 14.1843C34.4595 16.7825 38.702 29.996 38.0413 41.0454C42.4255 41.6721 42.4052 37.0929 42.4052 37.0929C41.0038 32.7864 41.9382 24.7811 50.6582 21.1997L50.6724 21.1997Z" fill="url(#paint11_linear_182_1482)"/>
</mask>
<g mask="url(#mask0_182_1482)">
<path opacity="0.2" d="M110.015 77.4419H67.5923C57.5523 77.4419 49.4121 86.0392 49.4121 96.6429V106.034C49.4121 107.47 50.5143 108.633 51.873 108.633H94.2961C104.336 108.633 112.476 100.037 112.476 89.4317V74.8428C112.476 76.2795 111.374 77.4419 110.015 77.4419Z" fill="black"/>
</g>
<path d="M110.168 81.2535H70.7991C61.4819 81.2535 53.9277 88.8076 53.9277 98.1248V106.376C53.9277 107.639 54.9505 108.66 56.2115 108.66H95.5803C104.898 108.66 112.452 101.107 112.452 91.7886V78.9697C112.452 80.2321 111.429 81.2535 110.168 81.2535Z" fill="url(#paint12_linear_182_1482)"/>
<path d="M64.0645 89.2891H68.7926C71.3303 89.2891 72.7548 90.4324 72.7548 92.4837C72.7736 92.9542 72.6604 93.4205 72.4279 93.83C72.1954 94.2394 71.853 94.5756 71.4393 94.8005C72.3947 95.2868 72.9269 96.1475 72.9269 97.3381C72.9269 99.5932 71.3604 100.721 68.8242 100.721H64.0645V89.2891ZM66.2406 91.2472V93.8924H68.8715C70.0464 93.8924 70.547 93.3143 70.547 92.5311C70.547 91.732 69.9976 91.2472 68.84 91.2472H66.2406ZM66.2406 95.8821V98.731H68.8557C70.0622 98.731 70.6876 98.1831 70.6876 97.2908C70.6876 96.4 70.1568 95.8821 68.7625 95.8821H66.2406ZM75.0399 89.2891H82.7275V91.372H77.2477V93.9398H82.7275V96.0227H77.2477V98.622H82.7275V100.721H75.0399V89.2891ZM87.8014 91.3246H84.6225V89.2905H93.1249V91.3246H89.9776V100.721H87.8L87.8014 91.3246ZM96.8661 89.2891H99.0423L103.363 100.721H101.094L100.342 98.6378H95.5664L94.8148 100.721H92.5439L96.8661 89.2891ZM96.3023 96.6338H99.606L97.9621 92.0921L96.3023 96.6338Z" fill="#20123A"/>
</g>
<defs>
<filter id="filter0_d_182_1482" x="0.167643" y="-0.628912" width="119.667" height="115.021" filterUnits="userSpaceOnUse" color-interpolation-filters="sRGB">
<feFlood flood-opacity="0" result="BackgroundImageFix"/>
<feColorMatrix in="SourceAlpha" type="matrix" values="0 0 0 0 0 0 0 0 0 0 0 0 0 0 0 0 0 0 127 0" result="hardAlpha"/>
<feOffset dy="1.33333"/>
<feGaussianBlur stdDeviation="2.66667"/>
<feComposite in2="hardAlpha" operator="out"/>
<feColorMatrix type="matrix" values="0 0 0 0 0.000624525 0 0 0 0 0.276128 0 0 0 0 0.599544 0 0 0 0.39 0"/>
<feBlend mode="normal" in2="BackgroundImageFix" result="effect1_dropShadow_182_1482"/>
<feBlend mode="normal" in="SourceGraphic" in2="effect1_dropShadow_182_1482" result="shape"/>
</filter>
<filter id="filter1_f_182_1482" x="36.0088" y="43.083" width="47.2715" height="24.9307" filterUnits="userSpaceOnUse" color-interpolation-filters="sRGB">
<feFlood flood-opacity="0" result="BackgroundImageFix"/>
<feBlend mode="normal" in="SourceGraphic" in2="BackgroundImageFix" result="shape"/>
<feGaussianBlur stdDeviation="0.999999" result="effect1_foregroundBlur_182_1482"/>
</filter>
<linearGradient id="paint0_linear_182_1482" x1="100.754" y1="97.5521" x2="85.932" y2="83.5192" gradientUnits="userSpaceOnUse">
<stop stop-color="#054096" stop-opacity="0.5"/>
<stop offset="0.054" stop-color="#0F3D9C" stop-opacity="0.441"/>
<stop offset="0.261" stop-color="#2F35B1" stop-opacity="0.249"/>
<stop offset="0.466" stop-color="#462FBF" stop-opacity="0.111"/>
<stop offset="0.669" stop-color="#542BC8" stop-opacity="0.028"/>
<stop offset="0.864" stop-color="#592ACB" stop-opacity="0"/>
</linearGradient>
<linearGradient id="paint1_linear_182_1482" x1="50.1811" y1="-48.0271" x2="3.79316" y2="98.4984" gradientUnits="userSpaceOnUse">
<stop stop-color="#107781"/>
<stop offset="1" stop-color="#105BBC"/>
</linearGradient>
<radialGradient id="paint2_radial_182_1482" cx="0" cy="0" r="1" gradientUnits="userSpaceOnUse" gradientTransform="translate(24.2754 45.9932) rotate(66.5179) scale(46.0847 44.1479)">
<stop offset="0.525579" stop-color="#0B4186" stop-opacity="0"/>
<stop offset="1" stop-color="#0B4186" stop-opacity="0.45"/>
</radialGradient>
<linearGradient id="paint3_linear_182_1482" x1="47.388" y1="3.37109" x2="106.677" y2="32.9001" gradientUnits="userSpaceOnUse">
<stop stop-color="#0DB7BD"/>
<stop offset="1" stop-color="#2493EF"/>
</linearGradient>
<linearGradient id="paint4_linear_182_1482" x1="66.6084" y1="4.58667" x2="64.2581" y2="22.6879" gradientUnits="userSpaceOnUse">
<stop stop-color="#107781"/>
<stop offset="1" stop-color="#105BBC"/>
</linearGradient>
<radialGradient id="paint5_radial_182_1482" cx="0" cy="0" r="1" gradientUnits="userSpaceOnUse" gradientTransform="translate(39.447 82.9202) rotate(-64.2627) scale(71.897 88.8136)">
<stop offset="0.0160882" stop-color="#094188"/>
<stop offset="0.967387" stop-color="#0B4186" stop-opacity="0"/>
</radialGradient>
<linearGradient id="paint6_linear_182_1482" x1="57.8032" y1="48.1768" x2="100.532" y2="62.9805" gradientUnits="userSpaceOnUse">
<stop stop-color="#0DB7BD"/>
<stop offset="1" stop-color="#2493EF"/>
</linearGradient>
<linearGradient id="paint7_linear_182_1482" x1="18.6301" y1="44.1113" x2="31.9108" y2="45.0578" gradientUnits="userSpaceOnUse">
<stop stop-color="#0DB7BD"/>
<stop offset="1" stop-color="#2493EF"/>
</linearGradient>
<linearGradient id="paint8_linear_182_1482" x1="60.0016" y1="39.7564" x2="60.0016" y2="85.8482" gradientUnits="userSpaceOnUse">
<stop stop-color="white"/>
<stop offset="0.90535" stop-color="#BEE1FE"/>
<stop offset="1" stop-color="#96CEFD"/>
</linearGradient>
<linearGradient id="paint9_linear_182_1482" x1="60.8637" y1="65.8385" x2="60.8637" y2="85.1473" gradientUnits="userSpaceOnUse">
<stop stop-color="#BCE0FD"/>
<stop offset="1" stop-color="#88CCFC"/>
</linearGradient>
<linearGradient id="paint10_linear_182_1482" x1="59.912" y1="36.4477" x2="59.9755" y2="87.032" gradientUnits="userSpaceOnUse">
<stop stop-color="white"/>
<stop offset="0.90535" stop-color="#BEE1FE"/>
<stop offset="1" stop-color="#96CEFD"/>
</linearGradient>
<linearGradient id="paint11_linear_182_1482" x1="24.4174" y1="21.3081" x2="101.246" y2="92.9717" gradientUnits="userSpaceOnUse">
<stop stop-color="#1B91F3"/>
<stop offset="1" stop-color="#0B68CB"/>
</linearGradient>
<linearGradient id="paint12_linear_182_1482" x1="60.3559" y1="83.7681" x2="113.865" y2="106.409" gradientUnits="userSpaceOnUse">
<stop offset="0.001" stop-color="#54FFBD"/>
<stop offset="1" stop-color="#00DDFF"/>
</linearGradient>
<clipPath id="clip0_182_1482">
<rect width="121" height="116" fill="white"/>
</clipPath>
</defs>
</svg>
