<svg width="47" height="45" viewBox="0 0 47 45" fill="none" xmlns="http://www.w3.org/2000/svg">
  <path opacity="0.2" d="M9.82563 6.75H37.0349V2.25H40.0582V6.75H46.1047V9.75H40.0582V36.75H46.1047V39.75H40.0582V44.25H37.0349V39.75H9.82563V44.25H6.80237V39.75H0.755859V36.75H6.80237V16.0986H9.82563V36.75H37.0349V9.75H0.755859V6.75H6.80237V2.25H9.82563V6.75Z" fill="#1373D9"/>
  <path d="M8.31395 0C9.56624 0 10.5814 1.00735 10.5814 2.25V6.04445H23.4524C33.0408 6.04445 40.8139 13.7574 40.814 23.2719C40.814 32.7887 33.0277 40.4999 23.4416 40.5C13.843 40.5 6.04651 32.7791 6.04651 23.25V14.25H10.5814V23.25C10.5814 30.2894 16.3432 36 23.4416 36C30.5275 35.9999 36.2791 30.2992 36.2791 23.2719C36.279 16.2426 30.5362 10.5445 23.4524 10.5445H2.26744L2.15085 10.5415C0.952779 10.4813 5.03876e-05 9.4982 0 8.29445C0 7.0906 0.952729 6.1076 2.15085 6.04735L2.26744 6.04445H6.04651V2.25C6.04651 1.00735 7.06167 0 8.31395 0ZM26.9401 17.3574C27.6818 16.4219 29.0406 16.2181 30.0308 16.9135C31.021 17.609 31.2792 18.9484 30.6366 19.9536L30.5716 20.0498L24.5965 28.4277C23.6207 29.7955 21.705 30.1049 20.3425 29.1147L16.4217 26.2651L16.3292 26.1944C15.3987 25.4433 15.2158 24.0917 15.9326 23.1206C16.6495 22.1495 18.0032 21.9149 19.0056 22.5688L19.1015 22.6348L21.7823 24.5835L26.8702 17.4502L26.9401 17.3574Z" fill="url(#paint0_linear_3679_21543)"/>
  <defs>
    <linearGradient id="paint0_linear_3679_21543" x1="0" y1="0" x2="20.8805" y2="48.9949" gradientUnits="userSpaceOnUse">
      <stop stop-color="#6AA9E5"/>
      <stop offset="0.994972" stop-color="#0D5BB2"/>
    </linearGradient>
  </defs>
</svg>
