<svg width="243" height="147" viewBox="0 0 243 147" fill="none" xmlns="http://www.w3.org/2000/svg">
<path d="M24 29C13.5138 29 5 37.5137 5 48V96C5 106.486 13.5138 115 24 115H72C82.4862 115 91 106.486 91 96V48C91 37.5137 82.4862 29 72 29H24Z" fill="#1A202C" stroke="#1A202C" stroke-width="6"/>
<path opacity="0.2" d="M24 34C16.244 34 10 40.244 10 48V54H86V48C86 40.244 79.756 34 72 34H24Z" fill="url(#paint0_linear_4827_545)"/>
<path d="M24 32C15.1706 32 8 39.1706 8 48V96C8 104.829 15.1706 112 24 112H72C80.8294 112 88 104.829 88 96V48C88 39.1706 80.8294 32 72 32H24ZM24 36H72C78.6826 36 84 41.3174 84 48V52H72V50C72 49.4696 71.7893 48.9608 71.4142 48.5857C71.0391 48.2106 70.5304 48 70 48C69.4696 48 68.9609 48.2106 68.5858 48.5857C68.2107 48.9608 68 49.4696 68 50V52H28V50C28 49.4696 27.7893 48.9608 27.4142 48.5857C27.0391 48.2106 26.5304 48 26 48C25.4696 48 24.9609 48.2106 24.5858 48.5857C24.2107 48.9608 24 49.4696 24 50V52H12V48C12 41.3174 17.3174 36 24 36ZM12 56H24V58C24 58.5304 24.2107 59.0392 24.5858 59.4143C24.9609 59.7894 25.4696 60 26 60C26.5304 60 27.0391 59.7894 27.4142 59.4143C27.7893 59.0392 28 58.5304 28 58V56H68V58C68 58.5304 68.2107 59.0392 68.5858 59.4143C68.9609 59.7894 69.4696 60 70 60C70.5304 60 71.0391 59.7894 71.4142 59.4143C71.7893 59.0392 72 58.5304 72 58V56H84V96C84 102.683 78.6826 108 72 108H24C17.3174 108 12 102.683 12 96V56ZM22 68C21.4696 68 20.9609 68.2106 20.5858 68.5857C20.2107 68.9608 20 69.4696 20 70C20 70.5304 20.2107 71.0392 20.5858 71.4143C20.9609 71.7894 21.4696 72 22 72H26C26.5304 72 27.0391 71.7894 27.4142 71.4143C27.7893 71.0392 28 70.5304 28 70C28 69.4696 27.7893 68.9608 27.4142 68.5857C27.0391 68.2106 26.5304 68 26 68H22ZM38 68C37.4696 68 36.9609 68.2106 36.5858 68.5857C36.2107 68.9608 36 69.4696 36 70C36 70.5304 36.2107 71.0392 36.5858 71.4143C36.9609 71.7894 37.4696 72 38 72H42C42.5304 72 43.0391 71.7894 43.4142 71.4143C43.7893 71.0392 44 70.5304 44 70C44 69.4696 43.7893 68.9608 43.4142 68.5857C43.0391 68.2106 42.5304 68 42 68H38ZM54 68C53.4696 68 52.9609 68.2106 52.5858 68.5857C52.2107 68.9608 52 69.4696 52 70C52 70.5304 52.2107 71.0392 52.5858 71.4143C52.9609 71.7894 53.4696 72 54 72H58C58.5304 72 59.0391 71.7894 59.4142 71.4143C59.7893 71.0392 60 70.5304 60 70C60 69.4696 59.7893 68.9608 59.4142 68.5857C59.0391 68.2106 58.5304 68 58 68H54ZM70 68C69.4696 68 68.9609 68.2106 68.5858 68.5857C68.2107 68.9608 68 69.4696 68 70C68 70.5304 68.2107 71.0392 68.5858 71.4143C68.9609 71.7894 69.4696 72 70 72H74C74.5304 72 75.0391 71.7894 75.4142 71.4143C75.7893 71.0392 76 70.5304 76 70C76 69.4696 75.7893 68.9608 75.4142 68.5857C75.0391 68.2106 74.5304 68 74 68H70ZM22 76C21.4696 76 20.9609 76.2106 20.5858 76.5857C20.2107 76.9608 20 77.4696 20 78C20 78.5304 20.2107 79.0392 20.5858 79.4143C20.9609 79.7894 21.4696 80 22 80H26C26.5304 80 27.0391 79.7894 27.4142 79.4143C27.7893 79.0392 28 78.5304 28 78C28 77.4696 27.7893 76.9608 27.4142 76.5857C27.0391 76.2106 26.5304 76 26 76H22ZM38 76C37.4696 76 36.9609 76.2106 36.5858 76.5857C36.2107 76.9608 36 77.4696 36 78C36 78.5304 36.2107 79.0392 36.5858 79.4143C36.9609 79.7894 37.4696 80 38 80H42C42.5304 80 43.0391 79.7894 43.4142 79.4143C43.7893 79.0392 44 78.5304 44 78C44 77.4696 43.7893 76.9608 43.4142 76.5857C43.0391 76.2106 42.5304 76 42 76H38ZM54 76C53.4696 76 52.9609 76.2106 52.5858 76.5857C52.2107 76.9608 52 77.4696 52 78C52 78.5304 52.2107 79.0392 52.5858 79.4143C52.9609 79.7894 53.4696 80 54 80H58C58.5304 80 59.0391 79.7894 59.4142 79.4143C59.7893 79.0392 60 78.5304 60 78C60 77.4696 59.7893 76.9608 59.4142 76.5857C59.0391 76.2106 58.5304 76 58 76H54ZM70 76C69.4696 76 68.9609 76.2106 68.5858 76.5857C68.2107 76.9608 68 77.4696 68 78C68 78.5304 68.2107 79.0392 68.5858 79.4143C68.9609 79.7894 69.4696 80 70 80H74C74.5304 80 75.0391 79.7894 75.4142 79.4143C75.7893 79.0392 76 78.5304 76 78C76 77.4696 75.7893 76.9608 75.4142 76.5857C75.0391 76.2106 74.5304 76 74 76H70ZM22 84C21.4696 84 20.9609 84.2106 20.5858 84.5857C20.2107 84.9608 20 85.4696 20 86C20 86.5304 20.2107 87.0392 20.5858 87.4143C20.9609 87.7894 21.4696 88 22 88H26C26.5304 88 27.0391 87.7894 27.4142 87.4143C27.7893 87.0392 28 86.5304 28 86C28 85.4696 27.7893 84.9608 27.4142 84.5857C27.0391 84.2106 26.5304 84 26 84H22ZM38 84C37.4696 84 36.9609 84.2106 36.5858 84.5857C36.2107 84.9608 36 85.4696 36 86C36 86.5304 36.2107 87.0392 36.5858 87.4143C36.9609 87.7894 37.4696 88 38 88H42C42.5304 88 43.0391 87.7894 43.4142 87.4143C43.7893 87.0392 44 86.5304 44 86C44 85.4696 43.7893 84.9608 43.4142 84.5857C43.0391 84.2106 42.5304 84 42 84H38ZM54 84C53.4696 84 52.9609 84.2106 52.5858 84.5857C52.2107 84.9608 52 85.4696 52 86C52 86.5304 52.2107 87.0392 52.5858 87.4143C52.9609 87.7894 53.4696 88 54 88H58C58.5304 88 59.0391 87.7894 59.4142 87.4143C59.7893 87.0392 60 86.5304 60 86C60 85.4696 59.7893 84.9608 59.4142 84.5857C59.0391 84.2106 58.5304 84 58 84H54ZM70 84C69.4696 84 68.9609 84.2106 68.5858 84.5857C68.2107 84.9608 68 85.4696 68 86C68 86.5304 68.2107 87.0392 68.5858 87.4143C68.9609 87.7894 69.4696 88 70 88H74C74.5304 88 75.0391 87.7894 75.4142 87.4143C75.7893 87.0392 76 86.5304 76 86C76 85.4696 75.7893 84.9608 75.4142 84.5857C75.0391 84.2106 74.5304 84 74 84H70ZM22 92C21.4696 92 20.9609 92.2106 20.5858 92.5857C20.2107 92.9608 20 93.4696 20 94C20 94.5304 20.2107 95.0392 20.5858 95.4143C20.9609 95.7894 21.4696 96 22 96H26C26.5304 96 27.0391 95.7894 27.4142 95.4143C27.7893 95.0392 28 94.5304 28 94C28 93.4696 27.7893 92.9608 27.4142 92.5857C27.0391 92.2106 26.5304 92 26 92H22ZM38 92C37.4696 92 36.9609 92.2106 36.5858 92.5857C36.2107 92.9608 36 93.4696 36 94C36 94.5304 36.2107 95.0392 36.5858 95.4143C36.9609 95.7894 37.4696 96 38 96H42C42.5304 96 43.0391 95.7894 43.4142 95.4143C43.7893 95.0392 44 94.5304 44 94C44 93.4696 43.7893 92.9608 43.4142 92.5857C43.0391 92.2106 42.5304 92 42 92H38ZM54 92C53.4696 92 52.9609 92.2106 52.5858 92.5857C52.2107 92.9608 52 93.4696 52 94C52 94.5304 52.2107 95.0392 52.5858 95.4143C52.9609 95.7894 53.4696 96 54 96H58C58.5304 96 59.0391 95.7894 59.4142 95.4143C59.7893 95.0392 60 94.5304 60 94C60 93.4696 59.7893 92.9608 59.4142 92.5857C59.0391 92.2106 58.5304 92 58 92H54ZM70 92C69.4696 92 68.9609 92.2106 68.5858 92.5857C68.2107 92.9608 68 93.4696 68 94C68 94.5304 68.2107 95.0392 68.5858 95.4143C68.9609 95.7894 69.4696 96 70 96H74C74.5304 96 75.0391 95.7894 75.4142 95.4143C75.7893 95.0392 76 94.5304 76 94C76 93.4696 75.7893 92.9608 75.4142 92.5857C75.0391 92.2106 74.5304 92 74 92H70Z" fill="url(#paint1_linear_4827_545)"/>
<path d="M170 29C159.514 29 151 37.5137 151 48V96C151 106.486 159.514 115 170 115H218C228.486 115 237 106.486 237 96V48C237 37.5137 228.486 29 218 29H170Z" fill="#1A202C" stroke="#1A202C" stroke-width="6"/>
<path opacity="0.2" d="M170 34C162.244 34 156 40.244 156 48V54H232V48C232 40.244 225.756 34 218 34H170Z" fill="url(#paint2_linear_4827_545)"/>
<path d="M170 32C161.171 32 154 39.1706 154 48V96C154 104.829 161.171 112 170 112H218C226.829 112 234 104.829 234 96V48C234 39.1706 226.829 32 218 32H170ZM170 36H218C224.683 36 230 41.3174 230 48V52H218V50C218 49.4696 217.789 48.9608 217.414 48.5857C217.039 48.2106 216.53 48 216 48C215.47 48 214.961 48.2106 214.586 48.5857C214.211 48.9608 214 49.4696 214 50V52H174V50C174 49.4696 173.789 48.9608 173.414 48.5857C173.039 48.2106 172.53 48 172 48C171.47 48 170.961 48.2106 170.586 48.5857C170.211 48.9608 170 49.4696 170 50V52H158V48C158 41.3174 163.317 36 170 36ZM158 56H170V58C170 58.5304 170.211 59.0392 170.586 59.4143C170.961 59.7894 171.47 60 172 60C172.53 60 173.039 59.7894 173.414 59.4143C173.789 59.0392 174 58.5304 174 58V56H214V58C214 58.5304 214.211 59.0392 214.586 59.4143C214.961 59.7894 215.47 60 216 60C216.53 60 217.039 59.7894 217.414 59.4143C217.789 59.0392 218 58.5304 218 58V56H230V96C230 102.683 224.683 108 218 108H170C163.317 108 158 102.683 158 96V56ZM168 68C167.47 68 166.961 68.2106 166.586 68.5857C166.211 68.9608 166 69.4696 166 70C166 70.5304 166.211 71.0392 166.586 71.4143C166.961 71.7894 167.47 72 168 72H172C172.53 72 173.039 71.7894 173.414 71.4143C173.789 71.0392 174 70.5304 174 70C174 69.4696 173.789 68.9608 173.414 68.5857C173.039 68.2106 172.53 68 172 68H168ZM184 68C183.47 68 182.961 68.2106 182.586 68.5857C182.211 68.9608 182 69.4696 182 70C182 70.5304 182.211 71.0392 182.586 71.4143C182.961 71.7894 183.47 72 184 72H188C188.53 72 189.039 71.7894 189.414 71.4143C189.789 71.0392 190 70.5304 190 70C190 69.4696 189.789 68.9608 189.414 68.5857C189.039 68.2106 188.53 68 188 68H184ZM200 68C199.47 68 198.961 68.2106 198.586 68.5857C198.211 68.9608 198 69.4696 198 70C198 70.5304 198.211 71.0392 198.586 71.4143C198.961 71.7894 199.47 72 200 72H204C204.53 72 205.039 71.7894 205.414 71.4143C205.789 71.0392 206 70.5304 206 70C206 69.4696 205.789 68.9608 205.414 68.5857C205.039 68.2106 204.53 68 204 68H200ZM216 68C215.47 68 214.961 68.2106 214.586 68.5857C214.211 68.9608 214 69.4696 214 70C214 70.5304 214.211 71.0392 214.586 71.4143C214.961 71.7894 215.47 72 216 72H220C220.53 72 221.039 71.7894 221.414 71.4143C221.789 71.0392 222 70.5304 222 70C222 69.4696 221.789 68.9608 221.414 68.5857C221.039 68.2106 220.53 68 220 68H216ZM168 76C167.47 76 166.961 76.2106 166.586 76.5857C166.211 76.9608 166 77.4696 166 78C166 78.5304 166.211 79.0392 166.586 79.4143C166.961 79.7894 167.47 80 168 80H172C172.53 80 173.039 79.7894 173.414 79.4143C173.789 79.0392 174 78.5304 174 78C174 77.4696 173.789 76.9608 173.414 76.5857C173.039 76.2106 172.53 76 172 76H168ZM184 76C183.47 76 182.961 76.2106 182.586 76.5857C182.211 76.9608 182 77.4696 182 78C182 78.5304 182.211 79.0392 182.586 79.4143C182.961 79.7894 183.47 80 184 80H188C188.53 80 189.039 79.7894 189.414 79.4143C189.789 79.0392 190 78.5304 190 78C190 77.4696 189.789 76.9608 189.414 76.5857C189.039 76.2106 188.53 76 188 76H184ZM200 76C199.47 76 198.961 76.2106 198.586 76.5857C198.211 76.9608 198 77.4696 198 78C198 78.5304 198.211 79.0392 198.586 79.4143C198.961 79.7894 199.47 80 200 80H204C204.53 80 205.039 79.7894 205.414 79.4143C205.789 79.0392 206 78.5304 206 78C206 77.4696 205.789 76.9608 205.414 76.5857C205.039 76.2106 204.53 76 204 76H200ZM216 76C215.47 76 214.961 76.2106 214.586 76.5857C214.211 76.9608 214 77.4696 214 78C214 78.5304 214.211 79.0392 214.586 79.4143C214.961 79.7894 215.47 80 216 80H220C220.53 80 221.039 79.7894 221.414 79.4143C221.789 79.0392 222 78.5304 222 78C222 77.4696 221.789 76.9608 221.414 76.5857C221.039 76.2106 220.53 76 220 76H216ZM168 84C167.47 84 166.961 84.2106 166.586 84.5857C166.211 84.9608 166 85.4696 166 86C166 86.5304 166.211 87.0392 166.586 87.4143C166.961 87.7894 167.47 88 168 88H172C172.53 88 173.039 87.7894 173.414 87.4143C173.789 87.0392 174 86.5304 174 86C174 85.4696 173.789 84.9608 173.414 84.5857C173.039 84.2106 172.53 84 172 84H168ZM184 84C183.47 84 182.961 84.2106 182.586 84.5857C182.211 84.9608 182 85.4696 182 86C182 86.5304 182.211 87.0392 182.586 87.4143C182.961 87.7894 183.47 88 184 88H188C188.53 88 189.039 87.7894 189.414 87.4143C189.789 87.0392 190 86.5304 190 86C190 85.4696 189.789 84.9608 189.414 84.5857C189.039 84.2106 188.53 84 188 84H184ZM200 84C199.47 84 198.961 84.2106 198.586 84.5857C198.211 84.9608 198 85.4696 198 86C198 86.5304 198.211 87.0392 198.586 87.4143C198.961 87.7894 199.47 88 200 88H204C204.53 88 205.039 87.7894 205.414 87.4143C205.789 87.0392 206 86.5304 206 86C206 85.4696 205.789 84.9608 205.414 84.5857C205.039 84.2106 204.53 84 204 84H200ZM216 84C215.47 84 214.961 84.2106 214.586 84.5857C214.211 84.9608 214 85.4696 214 86C214 86.5304 214.211 87.0392 214.586 87.4143C214.961 87.7894 215.47 88 216 88H220C220.53 88 221.039 87.7894 221.414 87.4143C221.789 87.0392 222 86.5304 222 86C222 85.4696 221.789 84.9608 221.414 84.5857C221.039 84.2106 220.53 84 220 84H216ZM168 92C167.47 92 166.961 92.2106 166.586 92.5857C166.211 92.9608 166 93.4696 166 94C166 94.5304 166.211 95.0392 166.586 95.4143C166.961 95.7894 167.47 96 168 96H172C172.53 96 173.039 95.7894 173.414 95.4143C173.789 95.0392 174 94.5304 174 94C174 93.4696 173.789 92.9608 173.414 92.5857C173.039 92.2106 172.53 92 172 92H168ZM184 92C183.47 92 182.961 92.2106 182.586 92.5857C182.211 92.9608 182 93.4696 182 94C182 94.5304 182.211 95.0392 182.586 95.4143C182.961 95.7894 183.47 96 184 96H188C188.53 96 189.039 95.7894 189.414 95.4143C189.789 95.0392 190 94.5304 190 94C190 93.4696 189.789 92.9608 189.414 92.5857C189.039 92.2106 188.53 92 188 92H184ZM200 92C199.47 92 198.961 92.2106 198.586 92.5857C198.211 92.9608 198 93.4696 198 94C198 94.5304 198.211 95.0392 198.586 95.4143C198.961 95.7894 199.47 96 200 96H204C204.53 96 205.039 95.7894 205.414 95.4143C205.789 95.0392 206 94.5304 206 94C206 93.4696 205.789 92.9608 205.414 92.5857C205.039 92.2106 204.53 92 204 92H200ZM216 92C215.47 92 214.961 92.2106 214.586 92.5857C214.211 92.9608 214 93.4696 214 94C214 94.5304 214.211 95.0392 214.586 95.4143C214.961 95.7894 215.47 96 216 96H220C220.53 96 221.039 95.7894 221.414 95.4143C221.789 95.0392 222 94.5304 222 94C222 93.4696 221.789 92.9608 221.414 92.5857C221.039 92.2106 220.53 92 220 92H216Z" fill="url(#paint3_linear_4827_545)"/>
<path d="M146.792 109.138L146.797 109.134C157.828 100.936 165 87.7983 165 73C165 48.1712 144.829 28 120 28C95.1712 28 75 48.1712 75 73C75 87.7181 82.0941 100.794 93.0236 109.001L93.0333 109.01L93.2086 109.141C93.2565 109.176 93.3046 109.21 93.3529 109.242C100.814 114.74 110.032 118 120 118C129.985 118 139.216 114.729 146.684 109.214C146.719 109.191 146.755 109.165 146.792 109.138ZM146.142 109.505C146.117 109.515 146.104 109.52 146.112 109.517L146.123 109.512L146.135 109.507L146.137 109.506L146.142 109.505Z" fill="#1A202C" stroke="#1A202C" stroke-width="6"/>
<path opacity="0.2" d="M120 33C109.391 33 99.2172 37.2143 91.7157 44.7157C84.2143 52.2172 80 62.3913 80 73C80.0206 79.1874 81.4762 85.2856 84.2525 90.8151C87.0288 96.3447 91.0501 101.155 96 104.867V103C96 97.46 100.46 93 106 93H112V87.3047C108.437 85.7498 105.405 83.1904 103.274 79.9396C101.143 76.6887 100.005 72.8872 100 69C100 63.6957 102.107 58.6086 105.858 54.8579C109.609 51.1071 114.696 49 120 49C125.304 49 130.391 51.1071 134.142 54.8579C137.893 58.6086 140 63.6957 140 69C139.995 72.8872 138.857 76.6887 136.726 79.9396C134.595 83.1904 131.563 85.7498 128 87.3047V93H134C139.54 93 144 97.46 144 103V104.867C148.95 101.155 152.971 96.3447 155.747 90.8151C158.524 85.2856 159.979 79.1874 160 73C160 62.3913 155.786 52.2172 148.284 44.7157C140.783 37.2143 130.609 33 120 33Z" fill="url(#paint4_linear_4827_545)"/>
<path d="M120 31C96.828 31 78 49.828 78 73C78 86.8065 84.6877 99.0681 94.9922 106.727C94.9948 106.729 94.9974 106.732 95 106.734C95.0017 106.736 95.0061 106.733 95.0078 106.734C101.995 111.923 110.641 115 120 115C129.359 115 138.005 111.923 144.992 106.734C144.997 106.731 145.003 106.73 145.008 106.727C155.312 99.0681 162 86.8065 162 73C162 49.828 143.172 31 120 31ZM120 35C141.012 35 158 51.988 158 73C158 84.0413 153.305 93.9683 145.805 100.906C144.809 95.2882 139.898 91 134 91H128C127.47 91 126.961 91.2107 126.586 91.5858C126.211 91.9609 126 92.4696 126 93C126 93.5304 126.211 94.0391 126.586 94.4142C126.961 94.7893 127.47 95 128 95H134C138.467 95 142 98.5334 142 103V103.992C135.794 108.402 128.206 111 120 111C111.799 111.007 104.21 108.407 98 103.992V103C98 98.5334 101.533 95 106 95H112C112.53 95 113.039 94.7893 113.414 94.4142C113.789 94.0391 114 93.5304 114 93C114 92.4696 113.789 91.9609 113.414 91.5858C113.039 91.2107 112.53 91 112 91H106C100.102 91 95.1911 95.2882 94.1953 100.906C86.6901 93.9636 81.9907 84.0319 82 73C82 51.988 98.988 35 120 35ZM120 47C107.873 47 98 56.8735 98 69C98 81.1265 107.873 91 120 91C132.127 91 142 81.1265 142 69C142 56.8735 132.127 47 120 47ZM120 51C129.965 51 138 59.0352 138 69C138 78.9648 129.965 87 120 87C110.035 87 102 78.9648 102 69C102 59.0352 110.035 51 120 51Z" fill="url(#paint5_linear_4827_545)"/>
<defs>
<linearGradient id="paint0_linear_4827_545" x1="16.08" y1="34" x2="59.974" y2="74.6945" gradientUnits="userSpaceOnUse">
<stop stop-color="#0DB7BD"/>
<stop offset="1" stop-color="#2493EF"/>
</linearGradient>
<linearGradient id="paint1_linear_4827_545" x1="14.4" y1="32" x2="95.4912" y2="51.7843" gradientUnits="userSpaceOnUse">
<stop stop-color="#0DB7BD"/>
<stop offset="1" stop-color="#2493EF"/>
</linearGradient>
<linearGradient id="paint2_linear_4827_545" x1="162.08" y1="34" x2="205.974" y2="74.6945" gradientUnits="userSpaceOnUse">
<stop stop-color="#0DB7BD"/>
<stop offset="1" stop-color="#2493EF"/>
</linearGradient>
<linearGradient id="paint3_linear_4827_545" x1="160.4" y1="32" x2="241.491" y2="51.7843" gradientUnits="userSpaceOnUse">
<stop stop-color="#0DB7BD"/>
<stop offset="1" stop-color="#2493EF"/>
</linearGradient>
<linearGradient id="paint4_linear_4827_545" x1="86.4" y1="33" x2="166.416" y2="54.7312" gradientUnits="userSpaceOnUse">
<stop stop-color="#0DB7BD"/>
<stop offset="1" stop-color="#2493EF"/>
</linearGradient>
<linearGradient id="paint5_linear_4827_545" x1="84.72" y1="31" x2="169.866" y2="51.7735" gradientUnits="userSpaceOnUse">
<stop stop-color="#0DB7BD"/>
<stop offset="1" stop-color="#2493EF"/>
</linearGradient>
</defs>
</svg>
