<svg width="62" height="62" viewBox="0 0 62 62" fill="none" xmlns="http://www.w3.org/2000/svg">
<g clip-path="url(#clip0_2149_75633)">
<circle opacity="0.4" cx="31" cy="31" r="31" fill="#06B596"/>
<circle cx="31" cy="31" r="25" fill="url(#paint0_linear_2149_75633)"/>
<path d="M37.802 29.144L36.2495 27.5915L40.5006 23.3404L42.0531 24.8929L37.802 29.144ZM44.2875 24.8929C44.2875 24.6462 44.2004 24.4141 44.0263 24.24L41.1535 21.3672C40.9794 21.1931 40.7473 21.106 40.5006 21.106C40.254 21.106 40.0218 21.1931 39.8477 21.3672L21.1892 40.0257C21.0151 40.1998 20.9281 40.4319 20.9281 40.6786C20.9281 40.9252 21.0151 41.1574 21.1892 41.3315L24.062 44.2042C24.2361 44.3783 24.4683 44.4654 24.7149 44.4654C24.9616 44.4654 25.1937 44.3783 25.3678 44.2042L44.0263 25.5458C44.2004 25.3717 44.2875 25.1395 44.2875 24.8929ZM24.6859 22.1362L24.2506 20.7143L23.8154 22.1362L22.3935 22.5714L23.8154 23.0067L24.2506 24.4286L24.6859 23.0067L26.1078 22.5714L24.6859 22.1362ZM29.764 24.4866L28.8935 21.6429L28.023 24.4866L25.1792 25.3571L28.023 26.2277L28.8935 29.0714L29.764 26.2277L32.6078 25.3571L29.764 24.4866ZM43.2573 31.4219L42.8221 30L42.3868 31.4219L40.9649 31.8571L42.3868 32.2924L42.8221 33.7143L43.2573 32.2924L44.6792 31.8571L43.2573 31.4219ZM33.9716 22.1362L33.5363 20.7143L33.1011 22.1362L31.6792 22.5714L33.1011 23.0067L33.5363 24.4286L33.9716 23.0067L35.3935 22.5714L33.9716 22.1362Z" fill="white"/>
</g>
<defs>
<linearGradient id="paint0_linear_2149_75633" x1="10" y1="5.99999" x2="60.682" y2="18.3652" gradientUnits="userSpaceOnUse">
<stop stop-color="#0DB7BD"/>
<stop offset="1" stop-color="#2493EF"/>
</linearGradient>
<clipPath id="clip0_2149_75633">
<rect width="62" height="62" fill="white"/>
</clipPath>
</defs>
</svg>
