<svg fill="none" xmlns="http://www.w3.org/2000/svg">
<g id="TB Logo">
<g id="Boundary" filter="url(#filter0_d_5013_440)">
<g id="Body">
<path id="Intersect" d="M28.7557 19.1563L28.76 19.1563C30.1375 14.3407 36.1402 11.9897 42.2572 11.9897C46.4834 11.9897 50.2784 13.3283 52.8793 15.4525C51.2681 15.5323 49.7352 15.8476 48.3321 16.3564C50.4338 17.1372 52.2393 18.3393 53.5777 19.8264C52.6898 19.6729 51.7689 19.5922 50.8247 19.5922C50.7229 19.5922 50.6213 19.5931 50.52 19.595C52.9514 23.1201 54.375 27.3938 54.375 32C54.375 44.0813 44.5813 53.875 32.5001 53.875C20.605 53.875 10.625 43.9155 10.625 32C10.625 30.1182 10.8755 28.1745 11.3609 26.3528C11.4879 25.9702 11.6655 25.6032 11.9013 25.469C12.1965 25.301 12.4648 25.8019 12.5082 25.965C12.8288 27.1686 13.2607 28.3327 13.7935 29.4477C13.747 26.9499 14.8138 24.6754 16.2817 22.7074C17.2602 21.3957 18.1672 20.1797 18.5861 16.6717C18.6143 16.4362 18.8376 16.2667 19.063 16.3405C22.2483 17.3834 23.9511 22.687 23.6859 27.1219C25.4456 27.3735 25.4375 25.5355 25.4375 25.5355C24.875 23.8069 25.25 20.5938 28.75 19.1563L28.7557 19.1563Z" fill="url(#paint0_linear_5013_440)"/>
<path id="Intersect_2" opacity="0.9" d="M53.6598 26.4294C54.1918 38.4609 44.3011 48.8336 32.2401 48.8336C20.9497 48.8336 11.6976 40.107 10.8607 29.0309C10.7133 30.0541 10.6335 31.0993 10.626 32.1616C10.7117 44.0142 20.6675 53.8751 32.5004 53.8751C44.5817 53.8751 54.3754 44.0814 54.3754 32.0001C54.3754 30.075 54.1268 28.208 53.6598 26.4294Z" fill="url(#paint1_radial_5013_440)"/>
<path id="Intersect_3" d="M31.9667 20.7507C31.7309 20.3336 30.6426 19.7169 30.1672 19.6093C31.9667 13.8438 41.1371 12.0737 46.7496 13.0938C49.0849 13.5183 51.9941 14.7916 52.8789 15.4525C50.278 13.3283 46.483 11.9897 42.2568 11.9897C36.1397 11.9897 30.1371 14.3407 28.7596 19.1563L28.7553 19.1563L28.7496 19.1563C25.2496 20.5938 24.875 23.8079 25.4375 25.5364C25.9772 23.4746 28.5468 20.941 31.9667 20.7507Z" fill="url(#paint2_linear_5013_440)"/>
<path id="Intersect_4" d="M38.3243 16.7691C33.4106 17.7359 31.8048 18.0519 30.1602 19.6152C32.0072 14.7254 36.7219 13.7347 42.3396 15.9634C40.7934 16.2833 39.4691 16.5438 38.3243 16.7691Z" fill="url(#paint3_linear_5013_440)"/>
<path id="Intersect_5" d="M11.8127 25.6831C10.4703 31.1792 11.5076 37.6392 17.6063 43.0605C15.7906 41.0753 13.5742 33.7439 18.4658 28.506C18.7953 28.1532 19.3622 28.4128 19.3801 28.8953C19.7831 39.7801 28.5668 46.4282 38.6926 45.185C35.5551 45.0087 25.1789 41.3747 32.8975 39.9368C36.9321 39.1851 43.258 38.0067 43.258 32.3312C43.258 23.1294 36.1431 20.4391 31.8292 20.8394C28.8764 21.1134 26.2485 22.9868 25.4395 25.5347C25.7499 26.5394 24.5122 27.2428 23.6862 27.1247C23.9513 22.6897 22.2485 17.3833 19.0632 16.3405C18.8378 16.2667 18.6145 16.4362 18.5864 16.6717C18.1675 20.1797 17.2604 21.3957 16.282 22.7074C14.814 24.6754 13.7472 26.9499 13.7937 29.4477C13.261 28.3327 12.8291 27.1686 12.5085 25.965C12.4725 25.8299 12.2772 25.4535 12.0407 25.4357C11.9127 25.4261 11.8449 25.5511 11.8127 25.6831Z" fill="url(#paint4_radial_5013_440)"/>
<path id="Intersect_6" d="M30.1865 40.4938C36.1263 45.3168 48.0722 41.7009 48.0722 29.9736C43.2493 37.2842 37.1068 42.3264 30.1865 40.4938Z" fill="url(#paint5_linear_5013_440)"/>
<path id="Intersect_7" d="M18.4659 28.5061C18.5913 28.3718 18.7513 28.3257 18.9024 28.3466C14.5236 33.6869 18.0552 43.0666 20.4792 45.3706C20.6147 45.7543 18.1799 43.759 17.8442 43.2918C16.0005 41.7276 13.3581 33.9754 18.4659 28.5061Z" fill="url(#paint6_linear_5013_440)"/>
</g>
<g id="Speech Balloon">
<path id="Intersect_8" d="M32.5004 40.9357C38.4419 40.9357 43.2586 37.0056 43.2586 32.1576C43.2586 27.3095 38.4419 23.3794 32.5004 23.3794C27.4316 23.3794 21.7403 26.6771 21.7422 32.2857C21.7451 40.953 30.9012 45.939 38.706 45.1842C38.1198 45.1162 34.4626 44.922 31.9906 42.1255C31.7677 41.8734 31.3806 41.4337 31.5562 41.1479C31.7317 40.862 32.214 40.9357 32.5004 40.9357Z" fill="url(#paint7_linear_5013_440)"/>
<path id="Intersect_9" opacity="0.7" d="M32.5004 40.9354C38.4419 40.9354 43.2586 37.0053 43.2586 32.1573C43.2586 30.677 42.8095 29.2822 42.0164 28.0588L33.4778 35.8141C32.8815 36.3557 31.8771 36.3557 31.2808 35.8141L22.9009 28.2031C22.1717 29.3754 21.7417 30.743 21.7422 32.2854C21.7451 40.9527 30.9012 45.9388 38.706 45.1839C38.6707 45.1798 38.6241 45.1753 38.5673 45.1697L38.5671 45.1697C37.6823 45.083 34.3132 44.7527 31.9906 42.1252C31.7677 41.8731 31.3806 41.4334 31.5562 41.1476C31.7036 40.9075 32.0673 40.921 32.3497 40.9315C32.4035 40.9335 32.4545 40.9354 32.5004 40.9354Z" fill="url(#paint8_linear_5013_440)"/>
<g id="Deep Shadow" filter="url(#filter1_f_5013_440)">
<path fill-rule="evenodd" clip-rule="evenodd" d="M30.0036 35.8657C28.4192 34.2167 23.6738 28.739 23.6738 28.739L24.0411 28.7548L31.4695 34.3032C32.0261 34.7075 32.8194 34.7034 33.3709 34.2935L40.6551 28.762L41.0418 28.7319C41.0418 28.7319 36.4516 34.0798 34.6935 35.8417C32.9354 37.6037 31.588 37.5148 30.0036 35.8657Z" fill="#458FCD"/>
</g>
<path id="Subtract" d="M33.5565 36.3159L42.0779 28.1798C40.2737 25.3966 36.9458 23.3792 32.5057 23.3792C28.8312 23.3792 24.8251 25.1126 22.9023 28.2026L31.1565 36.3159C31.7528 36.8574 32.9603 36.8574 33.5565 36.3159Z" fill="url(#paint9_linear_5013_440)"/>
<path id="Intersect_10" opacity="0.6" d="M42.0866 28.1693L33.5844 36.3044C32.8298 36.8404 32.0266 36.8799 31.2336 36.3931L22.8955 28.1986C23.1304 27.82 23.3979 27.4571 23.695 27.1125C23.9954 27.3934 24.2863 27.6659 24.5702 27.9318C26.7607 29.9835 28.5313 31.6419 31.0267 33.7716C32.1532 34.7331 32.5033 34.7142 33.6077 33.7716C36.4632 31.3345 38.5508 29.4901 41.2656 27.0667C41.5709 27.416 41.8456 27.7845 42.0866 28.1693Z" fill="white"/>
</g>
<path id="Eye" d="M34.0098 18.9884C35.161 18.6259 35.0603 17.4861 35.0603 17.4861C35.0603 17.4861 34.4843 16.8084 33.3437 17.184C32.2759 17.5357 32.1105 18.2959 32.1105 18.2959C32.1105 18.2959 32.6938 19.4028 34.0098 18.9884Z" fill="white"/>
</g>
</g>
<defs>
<filter id="filter0_d_5013_440" x="5.29167" y="7.98975" width="54.4167" height="52.5522" filterUnits="userSpaceOnUse" color-interpolation-filters="sRGB">
<feFlood flood-opacity="0" result="BackgroundImageFix"/>
<feColorMatrix in="SourceAlpha" type="matrix" values="0 0 0 0 0 0 0 0 0 0 0 0 0 0 0 0 0 0 127 0" result="hardAlpha"/>
<feOffset dy="1.33333"/>
<feGaussianBlur stdDeviation="2.66667"/>
<feComposite in2="hardAlpha" operator="out"/>
<feColorMatrix type="matrix" values="0 0 0 0 0.000624525 0 0 0 0 0.276128 0 0 0 0 0.599544 0 0 0 0.39 0"/>
<feBlend mode="normal" in2="BackgroundImageFix" result="effect1_dropShadow_5013_440"/>
<feBlend mode="normal" in="SourceGraphic" in2="effect1_dropShadow_5013_440" result="shape"/>
</filter>
<filter id="filter1_f_5013_440" x="21.6738" y="26.7319" width="21.3682" height="12.4011" filterUnits="userSpaceOnUse" color-interpolation-filters="sRGB">
<feFlood flood-opacity="0" result="BackgroundImageFix"/>
<feBlend mode="normal" in="SourceGraphic" in2="BackgroundImageFix" result="shape"/>
<feGaussianBlur stdDeviation="1" result="effect1_foregroundBlur_5013_440"/>
</filter>
<linearGradient id="paint0_linear_5013_440" x1="28.5586" y1="-8.64032" x2="9.93952" y2="50.1717" gradientUnits="userSpaceOnUse">
<stop stop-color="#107781"/>
<stop offset="1" stop-color="#0690BB"/>
<stop offset="1" stop-color="#105BBC"/>
</linearGradient>
<radialGradient id="paint1_radial_5013_440" cx="0" cy="0" r="1" gradientUnits="userSpaceOnUse" gradientTransform="translate(18.1612 29.0972) rotate(66.5179) scale(18.4973 17.72)">
<stop offset="0.525579" stop-color="#0B4186" stop-opacity="0"/>
<stop offset="1" stop-color="#0B4186" stop-opacity="0.45"/>
</radialGradient>
<linearGradient id="paint2_linear_5013_440" x1="27.437" y1="11.9897" x2="51.2339" y2="23.8419" gradientUnits="userSpaceOnUse">
<stop stop-color="#0DB7BD"/>
<stop offset="1" stop-color="#2493EF"/>
</linearGradient>
<linearGradient id="paint3_linear_5013_440" x1="35.1526" y1="12.4776" x2="34.2093" y2="19.7429" gradientUnits="userSpaceOnUse">
<stop stop-color="#107781"/>
<stop offset="1" stop-color="#0690BB"/>
<stop offset="1" stop-color="#105BBC"/>
</linearGradient>
<radialGradient id="paint4_radial_5013_440" cx="0" cy="0" r="1" gradientUnits="userSpaceOnUse" gradientTransform="translate(24.2502 43.9187) rotate(-64.2627) scale(28.8575 35.6473)">
<stop offset="0.0160882" stop-color="#094188"/>
<stop offset="0.967387" stop-color="#0B4186" stop-opacity="0"/>
</radialGradient>
<linearGradient id="paint5_linear_5013_440" x1="31.6174" y1="29.9736" x2="48.7676" y2="35.9154" gradientUnits="userSpaceOnUse">
<stop stop-color="#0DB7BD"/>
<stop offset="1" stop-color="#2493EF"/>
</linearGradient>
<linearGradient id="paint6_linear_5013_440" x1="15.8952" y1="28.3418" x2="21.2257" y2="28.7217" gradientUnits="userSpaceOnUse">
<stop stop-color="#0DB7BD"/>
<stop offset="1" stop-color="#2493EF"/>
</linearGradient>
<linearGradient id="paint7_linear_5013_440" x1="32.5007" y1="26.5941" x2="32.5007" y2="45.0941" gradientUnits="userSpaceOnUse">
<stop stop-color="white"/>
<stop offset="0.90535" stop-color="#BEE1FE"/>
<stop offset="1" stop-color="#96CEFD"/>
</linearGradient>
<linearGradient id="paint8_linear_5013_440" x1="32.8467" y1="37.0625" x2="32.8467" y2="44.8125" gradientUnits="userSpaceOnUse">
<stop stop-color="#BCE0FD"/>
<stop offset="1" stop-color="#88CCFC"/>
</linearGradient>
<linearGradient id="paint9_linear_5013_440" x1="32.4646" y1="25.2658" x2="32.4901" y2="45.569" gradientUnits="userSpaceOnUse">
<stop stop-color="white"/>
<stop offset="0.90535" stop-color="#BEE1FE"/>
<stop offset="1" stop-color="#96CEFD"/>
</linearGradient>
</defs>
</svg>
