<svg width="984" height="236" viewBox="0 0 984 236" fill="none" xmlns="http://www.w3.org/2000/svg">
<g clip-path="url(#clip0_3311_5)">
<path d="M54.6 88.2L73.3 180.2H80L98.7 88.2H153.3V233.1H123.5V113.6H116.8L90.8 233.1H62.6L36.6 113.6H29.9V233.1H0V88.2H54.6ZM225.7 118.9C260.1 118.9 280.1 139.5 280.1 177.1C280.1 214.7 260.2 235.3 225.7 235.3C191.2 235.3 171.3 214.7 171.3 177.1C171.4 139.4 191.3 118.9 225.7 118.9ZM225.7 212.1C241.2 212.1 248.6 203.7 248.6 185.2V168.8C248.6 150.3 241.3 141.9 225.7 141.9C210.1 141.9 202.8 150.3 202.8 168.8V185.2C202.9 203.7 210.2 212.1 225.7 212.1ZM292.3 211.5L349.2 142.6H293.1V121H384.7V142.6L327.8 211.5H385.5V233.1H292.3V211.5ZM401.1 121H443.1V233.1H413.3V142.6H401.1V121ZM413.3 88.2H443.1V109.8H413.3V88.2ZM462.8 88.2H504.8V233.1H475V109.8H462.8V88.2ZM524.6 88.2H566.6V233.1H536.8V109.8H524.6V88.2ZM630.6 118.9C647.2 118.9 658.1 127.1 661.3 141.4H668V121H703.5V142.6H691.3V211.5H703.5V233.1H686.5C674.5 233.1 668 226.6 668 214.6V212.7H661.3C658.1 227 647.2 235.2 630.6 235.2C604.4 235.2 585.9 212.9 585.9 177C585.9 141.1 604.4 118.9 630.6 118.9ZM639.4 212.1C654.5 212.1 661.4 203.7 661.4 185.2V168.8C661.4 150.3 654.5 141.9 639.4 141.9C624.3 141.9 617.4 150.3 617.4 168.8V185.2C617.4 203.7 624.3 212.1 639.4 212.1ZM814.4 233.1H784.6V0H814.4V233.1ZM838.7 118.9H956.7V112.2L879.8 84.3V60.7L956.7 32.8V26H865.6V0H983.6V47.5L921 69.1V75.8L983.6 97.4V144.9H838.7V118.9ZM838.7 26H865.6V52.9H838.7V26Z" fill="white"/>
</g>
<defs>
<clipPath id="clip0_3311_5">
<rect width="983.6" height="235.2" fill="white"/>
</clipPath>
</defs>
</svg>
