<svg width="132" height="30" viewBox="0 0 132 30" fill="none" xmlns="http://www.w3.org/2000/svg">
<g filter="url(#filter0_d_4622_5459)">
<path d="M27.6821 29.5631H4.08148C2.42562 29.5631 0.946181 28.575 0.312534 27.0459C-0.321113 25.5167 0.0260502 23.7723 1.19695 22.6021L17.5442 6.26214H5.82782C2.6092 6.26214 2.46739e-06 3.65409 2.46739e-06 0.436894H21.765C23.4207 0.436894 24.9 1.42474 25.5338 2.95386C26.1676 4.48299 25.8206 6.22715 24.6498 7.39789L8.30252 23.7379H21.8543C25.0729 23.7379 27.6821 26.3459 27.6821 29.5631ZM132 11.3592C132 5.09566 126.902 0 120.636 0C117.284 0 114.267 1.45887 112.185 3.77375C110.104 1.45887 107.087 0 103.735 0C97.4688 0 92.3709 5.09566 92.3709 11.3592V29.5631C95.5895 29.5631 98.1987 26.9551 98.1987 23.7379V11.3592C98.1987 8.30779 100.682 5.82524 103.735 5.82524C106.788 5.82524 109.272 8.3078 109.272 11.3592V23.7379C109.272 26.9551 111.881 29.5631 115.099 29.5631V11.3592C115.099 8.30779 117.583 5.82524 120.636 5.82524C123.689 5.82524 126.172 8.3078 126.172 11.3592V23.7379C126.172 26.9551 128.781 29.5631 132 29.5631L132 11.3592ZM89.457 15C89.457 23.2843 82.7383 30 74.4503 30C66.1624 30 59.4437 23.2843 59.4437 15C59.4437 6.71572 66.1624 0 74.4503 0C82.7383 0 89.457 6.71572 89.457 15ZM83.6291 15C83.6291 9.93292 79.5196 5.82524 74.4503 5.82524C69.381 5.82524 65.2715 9.93292 65.2715 15C65.2715 20.0671 69.381 24.1748 74.4503 24.1748C79.5196 24.1748 83.6291 20.0671 83.6291 15ZM57.1126 15C57.1126 23.2843 50.3939 30 42.106 30C33.818 30 27.0993 23.2843 27.0993 15C27.0993 6.71572 33.818 0 42.106 0C50.3939 0 57.1126 6.71572 57.1126 15ZM51.2848 15C51.2848 9.93292 47.1753 5.82524 42.106 5.82524C37.0367 5.82524 32.9272 9.93292 32.9272 15C32.9272 20.0671 37.0367 24.1748 42.106 24.1748C47.1753 24.1748 51.2848 20.0671 51.2848 15Z" fill="#0B5CFF"/>
</g>
<defs>
<filter id="filter0_d_4622_5459" x="-4" y="0" width="140" height="38" filterUnits="userSpaceOnUse" color-interpolation-filters="sRGB">
<feFlood flood-opacity="0" result="BackgroundImageFix"/>
<feColorMatrix in="SourceAlpha" type="matrix" values="0 0 0 0 0 0 0 0 0 0 0 0 0 0 0 0 0 0 127 0" result="hardAlpha"/>
<feOffset dy="4"/>
<feGaussianBlur stdDeviation="2"/>
<feComposite in2="hardAlpha" operator="out"/>
<feColorMatrix type="matrix" values="0 0 0 0 0 0 0 0 0 0 0 0 0 0 0 0 0 0 0.25 0"/>
<feBlend mode="normal" in2="BackgroundImageFix" result="effect1_dropShadow_4622_5459"/>
<feBlend mode="normal" in="SourceGraphic" in2="effect1_dropShadow_4622_5459" result="shape"/>
</filter>
</defs>
</svg>
