<svg width="33" height="32" viewBox="0 0 33 32" fill="none" xmlns="http://www.w3.org/2000/svg">
<path d="M24.3364 4H8.33642C5.02271 4 2.33643 6.6863 2.33643 10V26C2.33643 29.3137 5.02271 32 8.33642 32H24.3364C27.6501 32 30.3364 29.3137 30.3364 26V10C30.3364 6.6863 27.6501 4 24.3364 4Z" fill="#F9F9FA"/>
<path opacity="0.15" d="M2.33643 24V26C2.33643 29.324 5.01243 32 8.33643 32H24.3364C27.6604 32 30.3364 29.324 30.3364 26V24C30.3364 27.324 27.6604 30 24.3364 30H8.33643C5.01243 30 2.33643 27.324 2.33643 24Z" fill="black"/>
<path d="M8.33642 4H24.3364C27.6604 4 30.3364 6.676 30.3364 10V12C24.3364 12 12.3364 12 2.33643 12V10C2.33643 6.676 5.01242 4 8.33642 4Z" fill="url(#paint0_linear_4552_11045)"/>
<path opacity="0.15" d="M2.33643 13H30.3364" stroke="black"/>
<path opacity="0.15" d="M9.33643 8C7.67443 8 6.33643 9.338 6.33643 11V13C6.33643 14.662 7.67443 16 9.33643 16C10.9984 16 12.3364 14.662 12.3364 13V11C12.3364 9.338 10.9984 8 9.33643 8ZM23.3364 8C21.6744 8 20.3364 9.338 20.3364 11V13C20.3364 14.662 21.6744 16 23.3364 16C24.9984 16 26.3364 14.662 26.3364 13V11C26.3364 9.338 24.9984 8 23.3364 8Z" fill="#0C0C0D"/>
<path d="M9.33643 10C8.78243 10 8.33643 10.446 8.33643 11V13C8.33643 13.554 8.78243 14 9.33643 14C9.89042 14 10.3364 13.554 10.3364 13V11C10.3364 10.446 9.89042 10 9.33643 10ZM23.3364 10C22.7824 10 22.3364 10.446 22.3364 11V13C22.3364 13.554 22.7824 14 23.3364 14C23.8904 14 24.3364 13.554 24.3364 13V11C24.3364 10.446 23.8904 10 23.3364 10Z" fill="url(#paint1_linear_4552_11045)"/>
<path opacity="0.15" d="M9.33643 20H7.33642C6.78414 20 6.33643 20.4477 6.33643 21C6.33643 21.5523 6.78414 22 7.33642 22H9.33643C9.88871 22 10.3364 21.5523 10.3364 21C10.3364 20.4477 9.88871 20 9.33643 20Z" fill="#0C0C0D"/>
<path opacity="0.15" d="M17.3364 20H15.3364C14.7841 20 14.3364 20.4477 14.3364 21C14.3364 21.5523 14.7841 22 15.3364 22H17.3364C17.8887 22 18.3364 21.5523 18.3364 21C18.3364 20.4477 17.8887 20 17.3364 20Z" fill="#0C0C0D"/>
<path opacity="0.15" d="M25.3364 20H23.3364C22.7841 20 22.3364 20.4477 22.3364 21C22.3364 21.5523 22.7841 22 23.3364 22H25.3364C25.8887 22 26.3364 21.5523 26.3364 21C26.3364 20.4477 25.8887 20 25.3364 20Z" fill="#0C0C0D"/>
<path opacity="0.15" d="M9.33643 24H7.33642C6.78414 24 6.33643 24.4477 6.33643 25C6.33643 25.5523 6.78414 26 7.33642 26H9.33643C9.88871 26 10.3364 25.5523 10.3364 25C10.3364 24.4477 9.88871 24 9.33643 24Z" fill="#0C0C0D"/>
<path opacity="0.15" d="M17.3364 24H15.3364C14.7841 24 14.3364 24.4477 14.3364 25C14.3364 25.5523 14.7841 26 15.3364 26H17.3364C17.8887 26 18.3364 25.5523 18.3364 25C18.3364 24.4477 17.8887 24 17.3364 24Z" fill="#0C0C0D"/>
<path opacity="0.15" d="M25.3364 24H23.3364C22.7841 24 22.3364 24.4477 22.3364 25C22.3364 25.5523 22.7841 26 23.3364 26H25.3364C25.8887 26 26.3364 25.5523 26.3364 25C26.3364 24.4477 25.8887 24 25.3364 24Z" fill="#0C0C0D"/>
<path opacity="0.15" d="M9.33643 16H7.33642C6.78414 16 6.33643 16.4477 6.33643 17C6.33643 17.5523 6.78414 18 7.33642 18H9.33643C9.88871 18 10.3364 17.5523 10.3364 17C10.3364 16.4477 9.88871 16 9.33643 16Z" fill="#0C0C0D"/>
<path opacity="0.15" d="M17.3364 16H15.3364C14.7841 16 14.3364 16.4477 14.3364 17C14.3364 17.5523 14.7841 18 15.3364 18H17.3364C17.8887 18 18.3364 17.5523 18.3364 17C18.3364 16.4477 17.8887 16 17.3364 16Z" fill="#0C0C0D"/>
<path opacity="0.15" d="M25.3364 16H23.3364C22.7841 16 22.3364 16.4477 22.3364 17C22.3364 17.5523 22.7841 18 23.3364 18H25.3364C25.8887 18 26.3364 17.5523 26.3364 17C26.3364 16.4477 25.8887 16 25.3364 16Z" fill="#0C0C0D"/>
<defs>
<linearGradient id="paint0_linear_4552_11045" x1="16.3364" y1="12" x2="16.3364" y2="4" gradientUnits="userSpaceOnUse">
<stop stop-color="#D70022"/>
<stop offset="1" stop-color="#FF555F"/>
</linearGradient>
<linearGradient id="paint1_linear_4552_11045" x1="16.3364" y1="10" x2="16.3364" y2="14" gradientUnits="userSpaceOnUse">
<stop stop-color="#D7D7DB"/>
<stop offset="0.5" stop-color="white"/>
<stop offset="1" stop-color="#D7D7DB"/>
</linearGradient>
</defs>
</svg>
