<svg width="32" height="32" viewBox="0 0 32 32" fill="none" xmlns="http://www.w3.org/2000/svg">
<path d="M23.7071 9.7071C24.0976 9.31658 24.0976 8.68341 23.7071 8.29289C23.3166 7.90237 22.6834 7.90237 22.2929 8.29289L16 14.5858L9.7071 8.29297C9.31658 7.90245 8.68341 7.90245 8.29289 8.29297C7.90237 8.6835 7.90237 9.31666 8.2929 9.70719L14.5858 16L8.2929 22.2929C7.90237 22.6835 7.90238 23.3166 8.2929 23.7071C8.68343 24.0977 9.31659 24.0977 9.70711 23.7071L16 17.4142L22.2929 23.7071C22.6834 24.0976 23.3166 24.0976 23.7071 23.7071C24.0976 23.3166 24.0976 22.6834 23.7071 22.2929L17.4142 16L23.7071 9.7071Z" fill="#1A202C"/>
</svg>
