<svg width="36" height="36" viewBox="0 0 36 36" fill="none" xmlns="http://www.w3.org/2000/svg">
    <path opacity=".2" d="m25.962 16.225-4.387 9.58-.767-.35-.767-.352 4.387-9.58 1.534.702zM16.496 5.253 10.87 18.1l-1.546-.677L14.95 4.577l1.546.676zm3.847 0L14.718 18.1l-1.546-.677 5.625-12.845 1.546.676z" fill="#175FB6"/>
    <path d="M23.233 3.234c1.865 0 3.113 1.901 2.399 3.603l-.036.081-2.972 6.482-5.276 11.51-1.767 3.853L27.788 18.14h-4.394l1.158-2.532h6.618a1.266 1.266 0 0 1 .83 2.22L15.15 32.494c-1.57 1.366-3.893-.372-3.026-2.263l4.701-10.255 3.498-7.628 2.972-6.484.007-.021V5.83a.076.076 0 0 0-.011-.033.078.078 0 0 0-.026-.025c-.004-.002-.012-.006-.032-.006h-9.18c-.815 0-1.552.477-1.886 1.214l-.031.072-3.5 8.557h7.256l-1.158 2.532H6.75a1.266 1.266 0 0 1-1.171-1.745L9.793 6.094l.07-.16a4.602 4.602 0 0 1 4.19-2.7h9.18z" fill="#175FB6"/>
</svg>
