<svg width="15" height="15" viewBox="0 0 15 15" fill="none" xmlns="http://www.w3.org/2000/svg">
<g id="icon">
<path id="path293" opacity="0.2" d="M15 7.5C15 9.48912 14.2098 11.3968 12.8033 12.8033C11.3968 14.2098 9.48912 15 7.5 15C5.51088 15 3.60322 14.2098 2.1967 12.8033C0.790176 11.3968 0 9.48912 0 7.5C0 5.51088 0.790176 3.6032 2.1967 2.19668C3.60322 0.790154 5.51088 0 7.5 0C9.48912 0 11.3968 0.790154 12.8033 2.19668C14.2098 3.6032 15 5.51088 15 7.5Z" fill="#194E2C"/>
<path id="path1012" d="M7.5 0C3.3638 0 0 3.36379 0 7.5C0 11.6362 3.3638 15 7.5 15C11.6362 15 15 11.6362 15 7.5C15 3.36379 11.6362 0 7.5 0ZM7.5 1C7.60617 1 7.71232 1.00261 7.81836 1.00781C7.92535 1.01293 8.03117 1.02104 8.13672 1.03125C8.2429 1.04152 8.34852 1.05502 8.45312 1.07031C11.2847 1.48435 13.5157 3.7153 13.9297 6.54688C13.945 6.65148 13.9585 6.7571 13.9688 6.86328C13.979 6.96883 13.9871 7.07465 13.9922 7.18164C13.9974 7.28768 14 7.39383 14 7.5C14 7.81456 13.9766 8.12339 13.9336 8.42578C13.8895 8.73576 13.8225 9.03794 13.7363 9.33203C13.5605 9.93216 13.3012 10.4957 12.9707 11.0098C12.9701 11.0111 12.9694 11.0124 12.9688 11.0137C12.9675 11.0157 12.9661 11.0176 12.9648 11.0195C12.798 11.278 12.6129 11.5243 12.4121 11.7559C12.2809 11.9071 12.1444 12.0529 12 12.1914V12.168C11.6942 12.4699 11.3592 12.7408 11 12.9766V12.9785C10.7453 13.1413 10.4784 13.2853 10.2012 13.4121C9.92155 13.54 9.63134 13.6485 9.33203 13.7363C9.03821 13.8225 8.73544 13.8894 8.42578 13.9336C8.12342 13.9767 7.81454 14 7.5 14C7.18546 14 6.87658 13.9767 6.57422 13.9336C6.26456 13.8894 5.96179 13.8225 5.66797 13.7363C5.36866 13.6485 5.07845 13.54 4.79883 13.4121C4.52158 13.2853 4.25469 13.1413 4 12.9785V12.9766C3.64076 12.7408 3.30579 12.4699 3 12.168V12.1914C2.85556 12.0529 2.71907 11.9071 2.58789 11.7559C2.38709 11.5243 2.202 11.278 2.03516 11.0195C2.0332 11.0163 2.03125 11.013 2.0293 11.0098C1.69881 10.4957 1.43949 9.93216 1.26367 9.33203C1.17751 9.03794 1.11052 8.73576 1.06641 8.42578C1.02337 8.12339 1 7.81456 1 7.5C1 7.18575 1.02352 6.87643 1.06641 6.57422C1.20042 5.62989 1.53798 4.75361 2.03125 3.98633C2.53528 3.20232 3.20232 2.53528 3.98633 2.03125C4.75361 1.53797 5.62989 1.20042 6.57422 1.06641C6.87643 1.02352 7.18575 1 7.5 1ZM10.4668 5.00195C10.3345 5.01016 10.2108 5.07057 10.123 5.16992L6.93945 8.81055L4.8125 7.10938C4.76122 7.06831 4.70234 7.03771 4.63924 7.01941C4.57614 7.00111 4.51005 6.99543 4.44475 7.00269C4.37945 7.00994 4.31622 7.03 4.25867 7.06171C4.20112 7.09341 4.15039 7.13618 4.10938 7.1875C4.06831 7.23878 4.03775 7.29768 4.01945 7.36078C4.00115 7.42388 3.99546 7.48994 4.00272 7.55524C4.00997 7.62054 4.03003 7.68379 4.06173 7.74133C4.09344 7.79888 4.13618 7.84961 4.1875 7.89062L6.6875 9.89062C6.78805 9.97139 6.91592 10.0102 7.04439 9.9989C7.17287 9.98762 7.29202 9.92713 7.37695 9.83008L10.877 5.83008C10.9204 5.78064 10.9537 5.7231 10.9749 5.66077C10.9961 5.59843 11.0047 5.53249 11.0004 5.4668C10.996 5.4011 10.9787 5.33695 10.9495 5.27795C10.9203 5.21896 10.8797 5.16632 10.8301 5.12305C10.7805 5.07998 10.7228 5.04715 10.6605 5.02637C10.5982 5.00559 10.5323 4.99728 10.4668 5.00195Z" fill="#1D783B"/>
</g>
</svg>
