<svg width="15" height="15" viewBox="0 0 15 15" fill="none" xmlns="http://www.w3.org/2000/svg">
<path d="M10.1922 2.96812C10.109 2.87577 9.99258 2.82024 9.86846 2.81374C9.74434 2.80723 9.62272 2.85029 9.53034 2.93344L4.84284 7.15219C4.7942 7.19613 4.75531 7.2498 4.7287 7.30971C4.70209 7.36962 4.68834 7.43444 4.68834 7.5C4.68834 7.56555 4.70209 7.63038 4.7287 7.69029C4.75531 7.7502 4.7942 7.80386 4.84284 7.84781L9.53034 12.0666C9.62272 12.1497 9.74434 12.1928 9.86846 12.1863C9.99258 12.1798 10.109 12.1242 10.1922 12.0319C10.275 11.9394 10.3177 11.8179 10.311 11.694C10.3043 11.5702 10.2488 11.454 10.1566 11.3709L5.85628 7.5L10.1566 3.62906C10.2488 3.54604 10.3043 3.42985 10.311 3.30595C10.3177 3.18206 10.275 3.06058 10.1922 2.96812Z" fill="black"/>
</svg>
