<svg width="15" height="15" viewBox="0 0 15 15" fill="none" xmlns="http://www.w3.org/2000/svg">
<path d="M4.8078 2.96812C4.89098 2.87577 5.00743 2.82024 5.13155 2.81374C5.25567 2.80723 5.37729 2.85029 5.46967 2.93344L10.1572 7.15219C10.2058 7.19613 10.2447 7.2498 10.2713 7.30971C10.2979 7.36962 10.3117 7.43444 10.3117 7.5C10.3117 7.56555 10.2979 7.63038 10.2713 7.69029C10.2447 7.7502 10.2058 7.80386 10.1572 7.84781L5.46967 12.0666C5.37729 12.1497 5.25567 12.1928 5.13155 12.1863C5.00743 12.1798 4.89098 12.1242 4.8078 12.0319C4.72505 11.9394 4.68234 11.8179 4.68902 11.694C4.6957 11.5702 4.75122 11.454 4.84342 11.3709L9.14373 7.5L4.84342 3.62906C4.75122 3.54604 4.6957 3.42985 4.68902 3.30595C4.68234 3.18206 4.72505 3.06058 4.8078 2.96812Z" fill="black"/>
</svg>
