<svg width="31" height="31" viewBox="0 0 31 31" fill="none" xmlns="http://www.w3.org/2000/svg">
<path d="M11.8565 0.962952C5.74362 0.962952 0.761719 5.97713 0.761719 12.1296C0.761719 18.2821 5.74362 23.2963 11.8565 23.2963C14.4703 23.2963 16.8722 22.3744 18.7714 20.8439L28.2434 30.3772C28.4746 30.6099 28.7881 30.7406 29.115 30.7406C29.4419 30.7406 29.7554 30.6099 29.9866 30.3772C30.2177 30.1446 30.3476 29.829 30.3476 29.5C30.3476 29.171 30.2177 28.8554 29.9866 28.6227L20.5146 19.0894C22.0353 17.1779 22.9512 14.7604 22.9512 12.1296C22.9512 5.97713 17.9693 0.962952 11.8565 0.962952ZM11.8565 3.44443C16.6369 3.44443 20.4857 7.31822 20.4857 12.1296C20.4857 16.941 16.6369 20.8148 11.8565 20.8148C7.07608 20.8148 3.22722 16.941 3.22722 12.1296C3.22722 7.31822 7.07608 3.44443 11.8565 3.44443Z" fill="#D4D4D8"/>
</svg>
