<svg width="791" height="356" viewBox="0 0 791 356" fill="none" xmlns="http://www.w3.org/2000/svg">
<path d="M57.1435 0C167.022 0 212.384 2.95128 333.259 185.272C333.259 185.272 398.436 273.437 477.538 268.957C477.538 268.957 531.771 280.868 580.062 167.351C628.405 53.7807 667.947 -8.97825 791 7.4493C791 7.4493 733.874 58.2431 725.805 79.9154C717.754 101.588 586.911 262.965 515.39 274.166C525.881 277.153 540.555 280.868 565.388 276.388C565.388 276.388 591.024 277.917 595.067 290.593C569.815 288.371 486.321 313.777 468.755 327.235C451.206 340.729 390.96 376.642 342.687 340C353.004 338.454 410.827 327.591 437.578 301.296C392.581 301.829 317.906 286.878 262.191 233.844C206.581 180.792 71.7823 20.89 0 8.94271L57.1435 0Z" fill="#0BD1AE"/>
<path d="M57.1435 0C167.022 0 212.384 2.95128 333.259 185.272C333.259 185.272 398.436 273.437 477.538 268.957C477.538 268.957 531.771 280.868 580.062 167.351C628.405 53.7807 667.947 -8.97825 791 7.4493C791 7.4493 733.874 58.2431 725.805 79.9154C717.754 101.588 586.911 262.965 515.39 274.166C525.881 277.153 540.555 280.868 565.388 276.388C565.388 276.388 591.024 277.917 595.067 290.593C569.815 288.371 486.321 313.777 468.755 327.235C451.206 340.729 390.96 376.642 342.687 340C353.004 338.454 410.827 327.591 437.578 301.296C392.581 301.829 317.906 286.878 262.191 233.844C206.581 180.792 71.7823 20.89 0 8.94271L57.1435 0Z" fill="url(#paint0_linear_128_30)"/>
<defs>
<linearGradient id="paint0_linear_128_30" x1="63.28" y1="-4.64767e-05" x2="719.852" y2="355.923" gradientUnits="userSpaceOnUse">
<stop stop-color="#0BD1AE"/>
<stop offset="1" stop-color="#0690BB"/>
</linearGradient>
</defs>
</svg>
