<svg width="121" height="116" viewBox="0 0 121 116" fill="none" xmlns="http://www.w3.org/2000/svg">
<g filter="url(#filter0_d_441_4619)">
<path d="M51.1714 21.855L51.1819 21.855C54.614 9.85732 69.5691 4 84.8092 4C95.3386 4 104.793 7.33491 111.273 12.6271C107.259 12.8261 103.44 13.6116 99.9445 14.8793C105.181 16.8245 109.679 19.8194 113.013 23.5243C110.801 23.1421 108.507 22.9409 106.155 22.9409C105.901 22.9409 105.648 22.9433 105.395 22.9479C111.453 31.7306 115 42.3781 115 53.8542C115 83.9537 90.5996 108.354 60.5001 108.354C30.8645 108.354 6 83.5406 6 53.8541C6 49.1657 6.62406 44.3232 7.83343 39.7846C8.14979 38.8312 8.59228 37.9169 9.17987 37.5825C9.91529 37.1639 10.5837 38.4119 10.692 38.8183C11.4907 41.817 12.5667 44.7172 13.8941 47.4952C13.7782 41.2721 16.436 35.6054 20.0933 30.7023C22.5311 27.4343 24.7909 24.4047 25.8346 15.6647C25.9047 15.078 26.461 14.6557 27.0225 14.8396C34.9585 17.4378 39.201 30.6513 38.5404 41.7007C42.9245 42.3274 42.9042 37.7481 42.9042 37.7481C41.5028 33.4417 42.4372 25.4364 51.1572 21.855L51.1714 21.855Z" fill="url(#paint0_linear_441_4619)"/>
<path opacity="0.9" d="M113.217 39.9753C114.542 69.9508 89.9005 95.7936 59.8513 95.7936C31.7223 95.7936 8.67131 74.052 6.58635 46.4566C6.21899 49.006 6.02013 51.6098 6.00143 54.2565C6.2149 83.7864 31.0191 108.354 60.5001 108.354C90.5995 108.354 115 83.9537 115 53.8542C115 49.058 114.38 44.4065 113.217 39.9753Z" fill="url(#paint1_radial_441_4619)"/>
<path d="M59.1725 25.8276C58.585 24.7882 55.8737 23.2518 54.6891 22.9837C59.1725 8.61933 82.02 4.20918 96.0035 6.75074C101.822 7.80825 109.07 10.9807 111.274 12.6272C104.794 7.33496 95.3393 4.00002 84.8097 4.00002C69.5695 4.00002 54.6141 9.8574 51.1821 21.8552L51.1715 21.8552L51.1573 21.8552C42.4372 25.4366 41.5039 33.4445 42.9054 37.751C44.2499 32.6141 50.6521 26.3015 59.1725 25.8276Z" fill="url(#paint2_linear_441_4619)"/>
<path d="M75.0098 15.9073C62.7675 18.3161 58.7668 19.1033 54.6691 22.9984C59.2709 10.8157 71.0175 8.34737 85.0135 13.8999C81.1614 14.6969 77.8619 15.3461 75.0098 15.9073Z" fill="url(#paint3_linear_441_4619)"/>
<path d="M8.95848 38.1166C5.61403 51.8096 8.19835 67.9046 23.393 81.4114C18.8693 76.4654 13.3472 58.1995 25.5345 45.1496C26.3554 44.2705 27.7678 44.9175 27.8123 46.1195C28.8164 73.2385 50.7005 89.8019 75.9287 86.7045C68.1116 86.2653 42.2599 77.2113 61.4903 73.6288C71.5423 71.7562 87.303 68.8201 87.303 54.6799C87.303 31.754 69.5767 25.0514 58.8286 26.0486C51.472 26.7312 44.9247 31.3989 42.9089 37.7467C43.6825 40.2498 40.5988 42.0023 38.5407 41.7081C39.2014 30.6586 34.9588 17.438 27.0228 14.8397C26.4613 14.6559 25.9049 15.0782 25.8348 15.6649C24.7911 24.405 22.5313 27.4346 20.0935 30.7027C16.4361 35.6058 13.7783 41.2725 13.8942 47.4958C12.5668 44.7177 11.4907 41.8175 10.692 38.8188C10.6024 38.4822 10.1157 37.5444 9.52654 37.5001C9.20762 37.4761 9.03882 37.7876 8.95848 38.1166Z" fill="url(#paint4_radial_441_4619)"/>
<path d="M54.737 75.0159C69.5356 87.032 99.2984 78.0234 99.2984 48.8053C87.2822 67.0192 71.9786 79.5818 54.737 75.0159Z" fill="url(#paint5_linear_441_4619)"/>
<path d="M25.534 45.1492C25.8464 44.8146 26.2449 44.6997 26.6214 44.752C15.7119 58.0569 24.5107 81.426 30.55 87.1663C30.8874 88.1223 24.8214 83.1513 23.9849 81.9871C19.3916 78.0899 12.808 58.7759 25.534 45.1492Z" fill="url(#paint6_linear_441_4619)"/>
<path d="M60.4997 76.1166C75.3029 76.1166 87.3033 66.3249 87.3033 54.2462C87.3033 42.1675 75.3029 32.3758 60.4997 32.3758C47.8711 32.3758 33.6916 40.5918 33.6962 54.5654C33.7034 76.1595 56.5155 88.5821 75.9609 86.7016C74.5004 86.5321 65.3885 86.0481 59.2296 79.0809C58.6742 78.4527 57.71 77.3573 58.1473 76.6451C58.5846 75.9329 59.7862 76.1166 60.4997 76.1166Z" fill="url(#paint7_linear_441_4619)"/>
<path opacity="0.7" d="M60.4997 76.1164C75.3029 76.1164 87.3033 66.3247 87.3033 54.2461C87.3033 50.5579 86.1844 47.083 84.2086 44.035L62.9349 63.3569C61.4493 64.7062 58.9469 64.7062 57.4613 63.3569L36.5832 44.3944C34.7664 47.3152 33.695 50.7225 33.6962 54.5653C33.7034 76.1594 56.5155 88.582 75.9609 86.7014C75.8727 86.6912 75.7568 86.6798 75.6153 86.666L75.6148 86.6659C73.4104 86.4499 65.0165 85.6271 59.2296 79.0808C58.6742 78.4526 57.71 77.3572 58.1473 76.645C58.5146 76.0469 59.4207 76.0806 60.1243 76.1067C60.2585 76.1117 60.3854 76.1164 60.4997 76.1164Z" fill="url(#paint8_linear_441_4619)"/>
<g filter="url(#filter1_f_441_4619)">
<path fill-rule="evenodd" clip-rule="evenodd" d="M54.2782 63.4853C50.3308 59.3767 38.5079 45.7295 38.5079 45.7295L39.4231 45.7688L57.9306 59.5924C59.3172 60.5996 61.2936 60.5895 62.6676 59.5682L80.8159 45.7866L81.7794 45.7118C81.7794 45.7118 70.3432 59.0358 65.963 63.4255C61.5828 67.8153 58.2256 67.5938 54.2782 63.4853Z" fill="#458FCD"/>
</g>
<path d="M63.131 64.6068L84.3616 44.3363C79.8665 37.4019 71.5752 32.3756 60.5128 32.3756C51.358 32.3756 41.377 36.6943 36.5865 44.3931L57.1515 64.6068C58.6371 65.9561 61.6454 65.9561 63.131 64.6068Z" fill="url(#paint9_linear_441_4619)"/>
<path opacity="0.6" d="M84.3836 44.31L63.2008 64.5783C61.3208 65.9136 59.3198 66.012 57.3441 64.7991L36.57 44.383C37.1551 43.4396 37.8216 42.5356 38.5619 41.677C39.3104 42.377 40.0352 43.0558 40.7424 43.7182C46.2 48.83 50.6113 52.9618 56.8284 58.268C59.6351 60.6634 60.5073 60.6163 63.2588 58.268C70.3732 52.196 75.5745 47.6008 82.3381 41.5628C83.0988 42.4333 83.7833 43.3512 84.3836 44.31Z" fill="white"/>
<path d="M64.2598 21.4365C67.1282 20.5333 66.8772 17.6936 66.8772 17.6936C66.8772 17.6936 65.442 16.0052 62.6003 16.941C59.94 17.817 59.5278 19.7111 59.5278 19.7111C59.5278 19.7111 60.9811 22.469 64.2598 21.4365Z" fill="white"/>
</g>
<defs>
<filter id="filter0_d_441_4619" x="0.666667" y="-1.19209e-07" width="119.667" height="115.021" filterUnits="userSpaceOnUse" color-interpolation-filters="sRGB">
<feFlood flood-opacity="0" result="BackgroundImageFix"/>
<feColorMatrix in="SourceAlpha" type="matrix" values="0 0 0 0 0 0 0 0 0 0 0 0 0 0 0 0 0 0 127 0" result="hardAlpha"/>
<feOffset dy="1.33333"/>
<feGaussianBlur stdDeviation="2.66667"/>
<feComposite in2="hardAlpha" operator="out"/>
<feColorMatrix type="matrix" values="0 0 0 0 0.000624525 0 0 0 0 0.276128 0 0 0 0 0.599544 0 0 0 0.39 0"/>
<feBlend mode="normal" in2="BackgroundImageFix" result="effect1_dropShadow_441_4619"/>
<feBlend mode="normal" in="SourceGraphic" in2="effect1_dropShadow_441_4619" result="shape"/>
</filter>
<filter id="filter1_f_441_4619" x="36.5079" y="43.7118" width="47.2715" height="24.9308" filterUnits="userSpaceOnUse" color-interpolation-filters="sRGB">
<feFlood flood-opacity="0" result="BackgroundImageFix"/>
<feBlend mode="normal" in="SourceGraphic" in2="BackgroundImageFix" result="shape"/>
<feGaussianBlur stdDeviation="1" result="effect1_foregroundBlur_441_4619"/>
</filter>
<linearGradient id="paint0_linear_441_4619" x1="50.6802" y1="-47.3983" x2="4.29217" y2="99.1274" gradientUnits="userSpaceOnUse">
<stop stop-color="#107781"/>
<stop offset="1" stop-color="#0690BB"/>
<stop offset="1" stop-color="#105BBC"/>
</linearGradient>
<radialGradient id="paint1_radial_441_4619" cx="0" cy="0" r="1" gradientUnits="userSpaceOnUse" gradientTransform="translate(24.7749 46.6218) rotate(66.5179) scale(46.0848 44.148)">
<stop offset="0.525579" stop-color="#0B4186" stop-opacity="0"/>
<stop offset="1" stop-color="#0B4186" stop-opacity="0.45"/>
</radialGradient>
<linearGradient id="paint2_linear_441_4619" x1="47.8869" y1="4.00001" x2="107.176" y2="33.5291" gradientUnits="userSpaceOnUse">
<stop stop-color="#0DB7BD"/>
<stop offset="1" stop-color="#2493EF"/>
</linearGradient>
<linearGradient id="paint3_linear_441_4619" x1="67.1076" y1="5.21527" x2="64.7573" y2="23.3165" gradientUnits="userSpaceOnUse">
<stop stop-color="#107781"/>
<stop offset="1" stop-color="#0690BB"/>
<stop offset="1" stop-color="#105BBC"/>
</linearGradient>
<radialGradient id="paint4_radial_441_4619" cx="0" cy="0" r="1" gradientUnits="userSpaceOnUse" gradientTransform="translate(39.9461 83.5495) rotate(-64.2627) scale(71.8971 88.8137)">
<stop offset="0.0160882" stop-color="#094188"/>
<stop offset="0.967387" stop-color="#0B4186" stop-opacity="0"/>
</radialGradient>
<linearGradient id="paint5_linear_441_4619" x1="58.3019" y1="48.8053" x2="101.031" y2="63.6091" gradientUnits="userSpaceOnUse">
<stop stop-color="#0DB7BD"/>
<stop offset="1" stop-color="#2493EF"/>
</linearGradient>
<linearGradient id="paint6_linear_441_4619" x1="19.1291" y1="44.7399" x2="32.4098" y2="45.6864" gradientUnits="userSpaceOnUse">
<stop stop-color="#0DB7BD"/>
<stop offset="1" stop-color="#2493EF"/>
</linearGradient>
<linearGradient id="paint7_linear_441_4619" x1="60.5006" y1="40.3851" x2="60.5006" y2="86.477" gradientUnits="userSpaceOnUse">
<stop stop-color="white"/>
<stop offset="0.90535" stop-color="#BEE1FE"/>
<stop offset="1" stop-color="#96CEFD"/>
</linearGradient>
<linearGradient id="paint8_linear_441_4619" x1="61.3627" y1="66.4673" x2="61.3627" y2="85.7761" gradientUnits="userSpaceOnUse">
<stop stop-color="#BCE0FD"/>
<stop offset="1" stop-color="#88CCFC"/>
</linearGradient>
<linearGradient id="paint9_linear_441_4619" x1="60.4106" y1="37.0762" x2="60.4741" y2="87.6606" gradientUnits="userSpaceOnUse">
<stop stop-color="white"/>
<stop offset="0.90535" stop-color="#BEE1FE"/>
<stop offset="1" stop-color="#96CEFD"/>
</linearGradient>
</defs>
</svg>
