<svg width="32" height="30" viewBox="0 0 32 30" fill="none" xmlns="http://www.w3.org/2000/svg">
    <style>
        .bg-path { opacity: 0.2; fill: #1A202C; }
        .fg-path { fill: #1A202C; }

        @media (prefers-color-scheme: dark) {
            .bg-path { opacity: 0.5; fill: #EEEEF0; }
            .fg-path { fill: #EEEEF0; }
        }
    </style>
    <path class="bg-path"
        d="M7.97024 4.3125H24.3512V1.875H27.0179V4.3125H30.4464V6.9375H27.0179V23.0625H30.4464V25.6875H27.0179V28.125H24.3512V25.6875H7.97024V28.125H5.30357V25.6875H1.875V23.0625H5.30357V10.5308H7.97024V23.0625H24.3512V6.9375H1.875V4.3125H5.30357V1.875H7.97024V4.3125Z" />
    <path class="fg-path"
        d="M6.63504 0.5625C7.37142 0.5625 7.96837 1.15013 7.96837 1.875V4.34032H16.1723C22.1605 4.34032 27.0157 9.1186 27.016 15.0132C27.016 20.9093 22.1532 25.6873 16.1663 25.6875C10.1713 25.6875 5.30171 20.9039 5.30171 15V9.375H7.96837V15C7.96837 19.4515 11.6415 23.0625 16.1663 23.0625C20.6831 23.0623 24.3493 19.4569 24.3493 15.0132C24.349 10.5683 20.6878 6.96532 16.1723 6.96532H2.82552L2.68862 6.958C2.01662 6.89052 1.49225 6.33213 1.49219 5.65282C1.49219 4.97347 2.01659 4.41516 2.68862 4.34766L2.82552 4.34032H5.30171V1.875C5.30171 1.15013 5.89866 0.5625 6.63504 0.5625ZM18.4044 11.4287C18.83 10.8376 19.6621 10.6981 20.2631 11.1167C20.8257 11.5093 20.9866 12.2533 20.6544 12.832L20.58 12.9463L16.8165 18.1817C16.2692 18.9426 15.2266 19.1522 14.4267 18.6914L14.269 18.5904L11.8002 16.8092L11.6931 16.7241C11.1915 16.279 11.1044 15.5232 11.5115 14.9751C11.9196 14.4267 12.6787 14.2805 13.2615 14.6177L13.3746 14.6909L15.1425 15.9654L18.4044 11.4287Z" />
</svg>
